<svg width="43" height="43" viewBox="0 0 43 43" fill="none" xmlns="http://www.w3.org/2000/svg">
<path d="M22.8683 22.892C26.444 22.892 29.3427 19.9932 29.3427 16.4176C29.3427 12.8419 26.444 9.94318 22.8683 9.94318C19.2926 9.94318 16.3939 12.8418 16.3939 16.4176C16.3939 19.9933 19.2926 22.892 22.8683 22.892ZM22.8683 11.793C25.4183 11.793 27.4929 13.8676 27.4929 16.4176C27.4929 18.9676 25.4183 21.0421 22.8683 21.0421C20.3183 21.0421 18.2437 18.9676 18.2437 16.4176C18.2437 13.8676 20.3183 11.793 22.8683 11.793Z" fill="#1B1B1F"/>
<path d="M33.9404 28.4729C33.9404 25.149 31.2978 22.4295 28.068 22.4295H27.56C26.3151 23.6744 24.619 24.4439 22.7461 24.4439C20.8732 24.4439 19.177 23.6744 17.9321 22.4295H17.6688C14.439 22.4295 11.7964 25.149 11.7964 28.4729L11.307 36.3032H34.4298L33.9404 28.4729ZM13.276 34.4534L13.6426 28.5883C13.645 28.5499 13.6462 28.5114 13.6462 28.4729C13.6462 26.31 15.2248 24.5243 17.2441 24.3025C18.7999 25.5922 20.7246 26.2938 22.746 26.2938C24.7769 26.2938 26.7101 25.5856 28.2696 24.2845C30.3945 24.3943 32.0906 26.231 32.0906 28.4729C32.0906 28.5114 32.0918 28.5499 32.0942 28.5883L32.4607 34.4534H13.276Z" fill="#1B1B1F"/>
</svg>
