<svg width="24" height="24" viewBox="0 0 24 24" fill="none" xmlns="http://www.w3.org/2000/svg">
<g clip-path="url(#clip0_81_72)">
<path d="M12 0C5.3726 0 0 5.3726 0 12C0 18.6274 5.3726 24 12 24C18.6274 24 24 18.6274 24 12C24 5.3726 18.6274 0 12 0ZM19.3539 19.3539C17.5304 21.1719 15.0954 22.246 12.5233 22.3667C9.95117 22.4875 7.42624 21.6463 5.44046 20.007C3.45469 18.3678 2.15033 16.048 1.78154 13.4996C1.41275 10.9512 2.00595 8.3568 3.44556 6.22189C4.88516 4.08697 7.06804 2.56449 9.56886 1.95111C12.0697 1.33773 14.7093 1.67739 16.9734 2.9039C19.2374 4.13041 20.9638 6.15591 21.816 8.58573C22.6682 11.0156 22.5853 13.6756 21.5833 16.0477C21.0612 17.2836 20.304 18.4065 19.3539 19.3539Z" fill="#75D661"/>
<path d="M7.12504 9.375H9.00004V11.25H7.12504V9.375ZM15 9.375H16.875V11.25H15V9.375ZM15.8573 14.4C15.5672 15.1321 15.0633 15.7598 14.4112 16.2013C13.7591 16.6428 12.9891 16.8775 12.2016 16.875H11.7985C11.011 16.8776 10.241 16.6428 9.58883 16.2013C8.93671 15.7598 8.43273 15.1321 8.1426 14.4L8.08264 14.25H6.46729L6.75004 14.9569C7.15362 15.9659 7.85028 16.8308 8.75014 17.4401C9.65 18.0493 10.7118 18.375 11.7985 18.375H12.2016C13.2883 18.375 14.3501 18.0493 15.2499 17.4401C16.1498 16.8308 16.8464 15.9659 17.25 14.9569L17.5328 14.25H15.9173L15.8573 14.4Z" fill="#75D661"/>
</g>
<defs>
<clipPath id="clip0_81_72">
<rect width="24" height="24" fill="white"/>
</clipPath>
</defs>
</svg>
