<svg width="22" height="22" viewBox="0 0 18 19" fill="none" xmlns="http://www.w3.org/2000/svg">
<path d="M13.9293 18.2622H15.663C16.4274 18.2622 17.0491 17.6402 17.0491 16.8761V13.5827C17.0491 12.8185 16.4274 12.1966 15.663 12.1966H13.9293C13.1648 12.1966 12.5432 12.8185 12.5432 13.5827V16.8761C12.5432 17.6402 13.1648 18.2622 13.9293 18.2622ZM15.663 13.5827H15.664L15.663 16.8761H13.9293V13.5827H15.663Z" fill="black"/>
<path d="M1.45005 18.2624H3.18371C3.94817 18.2624 4.56982 17.6404 4.56982 16.8763V2.35123C4.56982 1.5871 3.94817 0.965118 3.18371 0.965118H1.45005C0.685595 0.965118 0.0639434 1.5871 0.0639434 2.35123V16.8763C0.0639434 17.6404 0.685595 18.2624 1.45005 18.2624ZM3.18371 2.35123H3.18439L3.18371 16.8763H1.45005V2.35123H3.18371Z" fill="black"/>
<path d="M7.68931 18.2618H9.42297C10.1874 18.2618 10.8091 17.6398 10.8091 16.8757V7.96613C10.8091 7.202 10.1874 6.58002 9.42297 6.58002H7.68931C6.92485 6.58002 6.3032 7.202 6.3032 7.96613V16.8757C6.3032 17.6398 6.92485 18.2618 7.68931 18.2618ZM9.42297 7.96613H9.42365L9.42297 16.8757H7.68931V7.96613H9.42297Z" fill="black"/>
</svg>
