<svg width="25" height="25" viewBox="0 0 25 25" fill="none" xmlns="http://www.w3.org/2000/svg">
<path d="M11.8908 3.10965C11.3275 3.11765 10.7708 3.13998 10.2208 3.17665C6.03684 3.45465 2.70484 6.83465 2.43084 11.0766C2.37787 11.9158 2.37787 12.7575 2.43084 13.5967C2.53084 15.1417 3.21384 16.5726 4.01884 17.7806C4.48584 18.6256 4.17784 19.6816 3.69084 20.6036C3.34084 21.2686 3.16484 21.6007 3.30584 21.8407C3.44584 22.0807 3.76084 22.0886 4.38984 22.1036C5.63484 22.1336 6.47384 21.7816 7.13984 21.2906C7.51684 21.0116 7.70584 20.8726 7.83584 20.8566C7.96584 20.8406 8.22284 20.9467 8.73484 21.1567C9.19484 21.3467 9.72984 21.4637 10.2198 21.4967C11.6448 21.5907 13.1338 21.5917 14.5618 21.4967C18.7448 21.2187 22.0768 17.8387 22.3508 13.5967C22.4038 12.7667 22.4038 11.9066 22.3508 11.0766C22.2961 10.2316 22.1168 9.3993 21.8188 8.60665" stroke="black" stroke-linecap="round" stroke-linejoin="round"/>
<path d="M14.3906 6.10565C14.3906 6.10565 15.3906 6.10565 16.3906 8.10565C16.3906 8.10565 19.5676 3.10565 22.3906 2.10565M8.89062 15.1057H15.8906M8.89062 10.1057H12.3906" stroke="black" stroke-linecap="round" stroke-linejoin="round"/>
</svg>
