<svg width="36" height="35" viewBox="0 0 36 35" fill="none" xmlns="http://www.w3.org/2000/svg">
<g clip-path="url(#clip0_99_93)">
<path d="M32.4825 9.23642V6.31976L20.8158 13.6114L9.14917 6.31976V9.23642L20.8158 16.5281L32.4825 9.23642ZM32.4825 3.40309C33.2561 3.40309 33.9979 3.71038 34.5449 4.25736C35.0919 4.80434 35.3992 5.54621 35.3992 6.31976V23.8198C35.3992 24.5933 35.0919 25.3352 34.5449 25.8822C33.9979 26.4291 33.2561 26.7364 32.4825 26.7364H9.14917C8.37562 26.7364 7.63376 26.4291 7.08678 25.8822C6.53979 25.3352 6.2325 24.5933 6.2325 23.8198V6.31976C6.2325 4.70101 7.53042 3.40309 9.14917 3.40309H32.4825ZM3.31584 9.23642V29.6531H29.5658V32.5698H3.31584C2.54229 32.5698 1.80042 32.2625 1.25344 31.7155C0.706461 31.1685 0.39917 30.4266 0.39917 29.6531V9.23642H3.31584Z" fill="#525B8E"/>
</g>
<defs>
<clipPath id="clip0_99_93">
<rect width="35" height="35" fill="white" transform="translate(0.133057)"/>
</clipPath>
</defs>
</svg>
