<svg width="25" height="24" viewBox="0 0 25 24" fill="none" xmlns="http://www.w3.org/2000/svg">
<path d="M14.9698 7.52971C15.0385 7.60339 15.1213 7.6625 15.2133 7.70349C15.3053 7.74448 15.4046 7.76652 15.5053 7.7683C15.606 7.77007 15.7061 7.75155 15.7994 7.71383C15.8928 7.67611 15.9777 7.61996 16.0489 7.54874C16.1201 7.47753 16.1762 7.39269 16.214 7.2993C16.2517 7.20592 16.2702 7.10589 16.2684 7.00518C16.2667 6.90448 16.2446 6.80517 16.2036 6.71317C16.1626 6.62117 16.1035 6.53837 16.0298 6.46971L13.0298 3.46971C12.8892 3.32926 12.6986 3.25037 12.4998 3.25037C12.3011 3.25037 12.1105 3.32926 11.9698 3.46971L8.96985 6.46971C8.83737 6.61188 8.76524 6.79993 8.76867 6.99423C8.7721 7.18853 8.85081 7.37392 8.98823 7.51133C9.12564 7.64874 9.31102 7.72745 9.50532 7.73088C9.69963 7.73431 9.88767 7.66219 10.0298 7.52971L11.7498 5.80971V13.9997C11.7498 14.1986 11.8289 14.3894 11.9695 14.53C12.1102 14.6707 12.3009 14.7497 12.4998 14.7497C12.6988 14.7497 12.8895 14.6707 13.0302 14.53C13.1708 14.3894 13.2498 14.1986 13.2498 13.9997V5.80971L14.9698 7.52971Z" fill="#4072EE"/>
<path d="M21.25 11.9996C21.25 11.8007 21.171 11.61 21.0303 11.4693C20.8897 11.3287 20.6989 11.2496 20.5 11.2496C20.3011 11.2496 20.1103 11.3287 19.9697 11.4693C19.829 11.61 19.75 11.8007 19.75 11.9996C19.75 12.9517 19.5625 13.8945 19.1981 14.7741C18.8338 15.6537 18.2997 16.4529 17.6265 17.1262C16.9533 17.7994 16.1541 18.3334 15.2745 18.6978C14.3948 19.0621 13.4521 19.2496 12.5 19.2496C11.5479 19.2496 10.6052 19.0621 9.72554 18.6978C8.84593 18.3334 8.0467 17.7994 7.37348 17.1262C6.70025 16.4529 6.16622 15.6537 5.80187 14.7741C5.43753 13.8945 5.25 12.9517 5.25 11.9996C5.25 11.8007 5.17098 11.61 5.03033 11.4693C4.88968 11.3287 4.69891 11.2496 4.5 11.2496C4.30109 11.2496 4.11032 11.3287 3.96967 11.4693C3.82902 11.61 3.75 11.8007 3.75 11.9996C3.75 14.3203 4.67187 16.5459 6.31282 18.1868C7.95376 19.8278 10.1794 20.7496 12.5 20.7496C14.8206 20.7496 17.0462 19.8278 18.6872 18.1868C20.3281 16.5459 21.25 14.3203 21.25 11.9996Z" fill="#4072EE"/>
</svg>
