<svg width="25" height="25" viewBox="0 0 25 25" fill="none" xmlns="http://www.w3.org/2000/svg">
<path d="M14.8158 8.37108C14.8845 8.44476 14.9673 8.50387 15.0593 8.54486C15.1513 8.58585 15.2506 8.60789 15.3513 8.60967C15.452 8.61144 15.552 8.59292 15.6454 8.5552C15.7388 8.51748 15.8236 8.46133 15.8948 8.39011C15.9661 8.3189 16.0222 8.23406 16.0599 8.14067C16.0976 8.04729 16.1162 7.94726 16.1144 7.84655C16.1126 7.74585 16.0906 7.64654 16.0496 7.55454C16.0086 7.46254 15.9495 7.37974 15.8758 7.31108L12.8758 4.31108C12.7352 4.17063 12.5445 4.09174 12.3458 4.09174C12.147 4.09174 11.9564 4.17063 11.8158 4.31108L8.81579 7.31108C8.68331 7.45325 8.61119 7.6413 8.61462 7.8356C8.61805 8.0299 8.69676 8.21528 8.83417 8.3527C8.97159 8.49011 9.15697 8.56882 9.35127 8.57225C9.54557 8.57568 9.73362 8.50356 9.87579 8.37108L11.5958 6.65108V14.8411C11.5958 15.04 11.6748 15.2308 11.8155 15.3714C11.9561 15.5121 12.1469 15.5911 12.3458 15.5911C12.5447 15.5911 12.7355 15.5121 12.8761 15.3714C13.0168 15.2308 13.0958 15.04 13.0958 14.8411V6.65108L14.8158 8.37108Z" fill="#4072EE"/>
<path d="M21.0958 12.8411C21.0958 12.6422 21.0168 12.4514 20.8762 12.3107C20.7355 12.1701 20.5447 12.0911 20.3458 12.0911C20.1469 12.0911 19.9561 12.1701 19.8155 12.3107C19.6748 12.4514 19.5958 12.6422 19.5958 12.8411C19.5958 13.7931 19.4083 14.7359 19.044 15.6155C18.6796 16.4951 18.1456 17.2944 17.4723 17.9676C16.7991 18.6408 15.9999 19.1748 15.1203 19.5392C14.2407 19.9035 13.2979 20.0911 12.3458 20.0911C11.3937 20.0911 10.451 19.9035 9.57137 19.5392C8.69176 19.1748 7.89253 18.6408 7.2193 17.9676C6.54608 17.2944 6.01204 16.4951 5.6477 15.6155C5.28335 14.7359 5.09583 13.7931 5.09583 12.8411C5.09583 12.6422 5.01681 12.4514 4.87616 12.3107C4.7355 12.1701 4.54474 12.0911 4.34583 12.0911C4.14691 12.0911 3.95615 12.1701 3.8155 12.3107C3.67484 12.4514 3.59583 12.6422 3.59583 12.8411C3.59583 15.1617 4.5177 17.3873 6.15864 19.0282C7.79958 20.6692 10.0252 21.5911 12.3458 21.5911C14.6665 21.5911 16.8921 20.6692 18.533 19.0282C20.174 17.3873 21.0958 15.1617 21.0958 12.8411Z" fill="#4072EE"/>
</svg>
