<svg width="35" height="39" viewBox="0 0 35 39" fill="none" xmlns="http://www.w3.org/2000/svg">
<path d="M20.2259 36.7636L13.9339 36.6886L13.5376 36.7636" fill="white"/>
<path d="M20.2259 36.7636L13.9339 36.6886L13.5376 36.7636" stroke="black" stroke-linecap="round" stroke-linejoin="round"/>
<path d="M32.055 26.7552C31.9639 25.6842 31.5195 24.7739 30.2664 25.0631C29.9855 25.1504 29.7239 25.2903 29.4953 25.4754C29.6559 24.5918 29.7791 23.6976 29.8648 22.7979C30.6734 13.8981 28.4671 4.85364 17.013 4.85364H16.7506C5.28038 4.85364 3.07416 13.8981 3.89881 22.7979C3.97914 23.7083 4.1023 24.6026 4.26294 25.4754C4.03439 25.2903 3.7727 25.1504 3.49184 25.0631C2.23879 24.7739 1.79967 25.6789 1.70864 26.7552C1.54264 28.6991 2.83855 30.5037 4.70741 31.4676C5.23449 31.6826 5.79011 31.8197 6.35673 31.8745C8.4987 36.0032 11.9526 38.7824 16.9006 38.5253C21.8431 38.7824 25.3131 36.0032 27.439 31.8745C28.0072 31.8189 28.5645 31.6818 29.0937 31.4676C30.9251 30.5197 32.221 28.6991 32.055 26.7552Z" fill="white" stroke="black" stroke-width="0.5" stroke-linecap="round" stroke-linejoin="round"/>
<path d="M15.4014 26.8302C15.5046 27.0238 15.6592 27.1851 15.8481 27.2966C16.037 27.408 16.253 27.4653 16.4723 27.4621C16.8902 27.4941 17.3092 27.4166 17.6879 27.2372C17.7671 27.2101 17.8394 27.166 17.8997 27.1079C17.96 27.0499 18.0069 26.9793 18.037 26.9013C18.0671 26.8232 18.0798 26.7394 18.0741 26.6559C18.0683 26.5724 18.0444 26.4912 18.0039 26.4179C17.9718 26.3269 17.9236 26.268 17.8646 26.1127C17.8182 25.9974 17.7788 25.8794 17.7468 25.7592C17.6826 25.5397 17.6237 25.3148 17.5755 25.0899C17.3773 24.1956 17.2167 23.3013 17.0882 22.4124C16.9488 21.5119 16.8683 20.6032 16.8472 19.6921L17.4844 22.3696L18.0895 25.0096L18.2555 25.6629C18.2877 25.7593 18.3144 25.8771 18.3466 25.952C18.3787 26.027 18.443 26.1502 18.4858 26.268C18.5448 26.4031 18.5752 26.5489 18.5752 26.6964C18.5752 26.8438 18.5448 26.9896 18.4858 27.1248C18.3532 27.3728 18.134 27.5634 17.87 27.6602C17.407 27.8369 16.902 27.8723 16.4188 27.762C16.1759 27.7253 15.9493 27.6171 15.7681 27.4511C15.5869 27.2852 15.4592 27.069 15.4014 26.8302Z" fill="black"/>
<path d="M7.28857 17.8875C7.42573 17.3688 7.69509 16.8946 8.07037 16.5113C8.45781 16.1238 8.93666 15.8402 9.46267 15.6866C9.9573 15.5499 10.4737 15.5099 10.9834 15.5688C11.5148 15.6135 12.0248 15.7982 12.4614 16.1043C12.0478 16.3878 11.6043 16.6248 11.1388 16.8111C10.7369 16.9717 10.3256 17.1076 9.90713 17.2181L8.75046 17.5608C8.27605 17.721 7.78603 17.8305 7.28857 17.8875Z" fill="black"/>
<path d="M19.9906 29.7487C19.7925 29.9629 19.5836 30.1663 19.3641 30.3645C19.1315 30.5453 18.8844 30.7065 18.6251 30.8464C18.0906 31.1345 17.4969 31.2958 16.8901 31.3176C16.2796 31.3335 15.6751 31.1934 15.1337 30.9107C14.6004 30.6433 14.1449 30.2431 13.811 29.7487C14.2703 30.0729 14.771 30.3341 15.2997 30.5251C15.805 30.7108 16.3412 30.798 16.8794 30.7822C17.418 30.764 17.9499 30.6573 18.4537 30.4662C18.7215 30.3859 18.9892 30.2467 19.2248 30.1449C19.4605 30.0432 19.7228 29.8718 19.9906 29.7487Z" fill="black"/>
<path d="M26.4321 17.8875C25.9351 17.834 25.445 17.7281 24.9702 17.5716L23.8136 17.2288C23.3954 17.1175 22.9841 16.9817 22.582 16.8219C22.1169 16.6346 21.6734 16.3976 21.2593 16.115C21.6963 15.8096 22.2061 15.6249 22.7372 15.5795C23.2488 15.5207 23.7669 15.5607 24.2634 15.6973C24.7878 15.8511 25.2648 16.1347 25.6503 16.522C26.024 16.9024 26.2933 17.3727 26.4321 17.8875Z" fill="black"/>
<path d="M3.11719 27.2266C3.45235 27.2644 3.76713 27.4068 4.01684 27.6335C4.2719 27.8392 4.49558 28.0809 4.68085 28.3511C4.8661 28.6208 5.01383 28.9144 5.11995 29.2239C5.22106 29.5284 5.29981 29.8398 5.35557 30.1557C5.11981 29.9359 4.91449 29.6856 4.7451 29.4114C4.56839 29.149 4.41845 28.8759 4.24174 28.6563C4.06503 28.4368 3.89902 28.169 3.70625 27.9227C3.53082 27.6737 3.33369 27.4408 3.11719 27.2266Z" fill="black"/>
<path d="M30.6041 27.2266C30.3836 27.4401 30.1829 27.6731 30.0043 27.9227C29.8276 28.169 29.6455 28.41 29.4688 28.6563C29.2921 28.9026 29.1422 29.149 28.9708 29.4114C28.8012 29.6869 28.5939 29.9375 28.355 30.1557C28.41 29.8391 28.4906 29.5275 28.596 29.2239C28.6979 28.9137 28.844 28.6197 29.0297 28.3511C29.2165 28.0821 29.44 27.8406 29.6937 27.6335C29.9463 27.4047 30.2651 27.2622 30.6041 27.2266Z" fill="black"/>
<path d="M11.1658 23.7726C11.0116 23.9271 10.815 24.0324 10.601 24.0752C10.3869 24.1179 10.165 24.0962 9.96329 24.0128C9.76158 23.9294 9.58916 23.788 9.46784 23.6065C9.34652 23.4251 9.28174 23.2117 9.28174 22.9934C9.28174 22.7752 9.34652 22.5618 9.46784 22.3803C9.58916 22.1989 9.76158 22.0575 9.96329 21.9741C10.165 21.8906 10.3869 21.8689 10.601 21.9117C10.815 21.9545 11.0116 22.0598 11.1658 22.2143C11.3721 22.4211 11.488 22.7013 11.488 22.9934C11.488 23.2856 11.3721 23.5658 11.1658 23.7726Z" fill="black"/>
<path d="M22.5715 23.7726C22.7254 23.9253 22.921 24.029 23.1337 24.0707C23.3464 24.1124 23.5667 24.0902 23.7668 24.0069C23.9669 23.9235 24.1379 23.7828 24.2582 23.6025C24.3784 23.4221 24.4426 23.2102 24.4426 22.9935C24.4426 22.7767 24.3784 22.5648 24.2582 22.3844C24.1379 22.2041 23.9669 22.0634 23.7668 21.98C23.5667 21.8967 23.3464 21.8745 23.1337 21.9162C22.921 21.9579 22.7254 22.0616 22.5715 22.2143C22.4687 22.3164 22.3871 22.4377 22.3314 22.5715C22.2757 22.7052 22.2471 22.8486 22.2471 22.9935C22.2471 23.1383 22.2757 23.2817 22.3314 23.4154C22.3871 23.5492 22.4687 23.6705 22.5715 23.7726Z" fill="black"/>
<path d="M4.09172 25.5985C4.62721 26.0162 4.93244 25.2826 5.03419 24.7578C5.24838 23.81 5.03419 22.5462 4.93244 21.5984C4.82534 21.1807 4.50942 20.5274 4.61652 20.1258C4.72362 19.7242 5.35012 19.2851 5.56432 18.7603C6.09981 17.4965 6.63531 13.1805 5.77317 11.9221C4.30057 9.50166 1.35536 13.0787 1.24826 14.7602C0.963351 17.6938 1.51084 20.6484 2.82797 23.2852L4.09172 25.5985Z" fill="#757575" stroke="black" stroke-width="0.5" stroke-linecap="round" stroke-linejoin="round"/>
<path d="M29.8059 25.5985C29.2704 26.0162 28.9652 25.2826 28.8581 24.7578C28.7358 23.7052 28.7719 22.6403 28.9652 21.5984C29.067 21.1807 29.3829 20.5274 29.2812 20.1258C29.1794 19.7242 28.5422 19.2851 28.3333 18.7603C27.7978 17.4965 27.2623 13.1805 28.1245 11.9221C29.5971 9.50166 32.5423 13.0787 32.644 14.7602C32.9283 17.6932 32.3828 20.6471 31.0697 23.2852L29.8059 25.5985Z" fill="#757575" stroke="black" stroke-width="0.5" stroke-linecap="round" stroke-linejoin="round"/>
<path d="M5.53773 11.5152C4.40784 11.0386 3.62602 10.1497 3.75453 8.40936C3.92589 6.0532 5.85367 2.97948 7.87782 1.71572C12.0868 -0.913542 17.1365 1.71572 21.1312 3.32219C23.0269 3.95407 25.1314 4.47886 27.1287 3.95407C28.8155 3.41858 31.8625 1.6354 30.0739 4.7948C32.1784 3.84698 35.7555 4.37176 34.1758 7.31696C32.9174 9.63564 30.165 10.8298 27.7499 11.5259C23.6534 12.7094 19.2142 12.8165 14.9838 12.629C13.1364 12.5434 11.3157 12.3881 9.47358 12.2167C8.20446 12.0721 6.68904 12.0079 5.53773 11.5152Z" fill="#757575" stroke="black" stroke-width="0.5" stroke-linecap="round" stroke-linejoin="round"/>
</svg>
