<svg width="38" height="40" viewBox="0 0 38 40" fill="none" xmlns="http://www.w3.org/2000/svg">
<path d="M23.1918 37.8036C24.4931 37.8587 25.7961 37.7539 27.0718 37.4913C26.9899 37.6961 26.391 38.7147 26.3091 38.9194C27.5939 38.4485 28.9964 37.865 29.5646 36.6263C29.4213 37.3582 29.2728 38.0953 29.1244 38.8324C31.1155 38.2464 32.9489 37.2194 34.4888 35.8278C36.03 34.4189 36.9687 32.47 37.1095 30.3866C37.1658 28.851 36.6744 27.3154 36.4339 25.7798C35.9796 23.0897 35.7723 20.3638 35.8145 17.6359C35.963 12.205 34.1663 6.21616 29.7591 2.71498C27.64 1.03094 24.0364 0.304081 21.4054 0.201707C18.6311 0.0993334 17.0699 1.0207 14.3928 1.58887C8.98748 1.58887 4.7134 6.70755 3.40301 11.5908C2.55843 14.7439 2.64545 18.0659 2.15405 21.2907C1.86229 23.246 1.35041 25.1655 1.05865 27.1209C0.692151 29.0707 0.74977 31.0766 1.22757 33.0022C1.47234 33.9611 1.91844 34.8569 2.53624 35.6301C3.15403 36.4032 3.92937 37.0359 4.81065 37.4862C4.36399 37.0617 4.05996 36.5091 3.94047 35.9045C5.42735 37.3085 7.39298 38.0936 9.43793 38.1004C9.50447 37.9111 9.47889 38.1312 9.35604 37.9725C8.98518 37.5071 8.71813 36.9678 8.57287 36.3908C9.34486 37.0546 10.2732 37.5109 11.2704 37.7165C12.0229 37.8906 12.806 37.8394 13.5585 38.0237C14.4542 38.2438 15.0941 38.6635 16.1178 38.6174L15.8209 37.9366C17.1876 38.4485 18.5441 38.4485 19.9466 38.7044C21.1546 38.9194 21.9582 37.7677 23.1918 37.8036Z" fill="white"/>
<path d="M23.074 37.9109C24.4476 37.9989 25.8268 37.8886 27.1689 37.5833L26.8362 37.5014C26.6263 38.0133 26.2885 38.433 26.0787 38.9244C26.0121 39.078 26.4165 39.0063 26.4677 38.9859C27.7525 38.5098 29.2011 37.9263 29.8307 36.6159H29.3188C29.1703 37.353 29.0219 38.0901 28.8786 38.8272C28.8428 38.9859 29.1959 38.9091 29.2676 38.8886C32.4514 37.8649 35.6097 35.9146 36.874 32.654C37.1762 31.9108 37.3493 31.1214 37.3858 30.3199C37.3862 29.3663 37.2727 28.416 37.048 27.4893C36.624 25.5123 36.3265 23.5102 36.1573 21.4953C36.0806 20.4716 36.0345 19.4837 36.0345 18.4804C36.0345 17.6512 36.0703 16.8271 36.0345 16.003C35.9687 14.4475 35.7388 12.9033 35.3486 11.3961C34.6258 8.40427 33.092 5.66964 30.9158 3.4929C29.8515 2.46529 28.579 1.67806 27.1843 1.18438C25.7164 0.666499 24.1894 0.334611 22.6389 0.196471C21.0847 0.0300587 19.5134 0.137473 17.9963 0.513831C17.1875 0.718579 16.3992 0.979634 15.5956 1.19974C15.2049 1.32449 14.8065 1.42366 14.4029 1.49662C14.0242 1.54269 13.6403 1.52733 13.2615 1.57852C10.3592 1.95218 7.83568 3.72325 6.03391 5.96523C5.10319 7.12391 4.33985 8.40759 3.7663 9.77865C3.15372 11.3271 2.75092 12.9504 2.56855 14.6056C2.31773 16.5711 2.24095 18.547 1.99526 20.5125C1.74956 22.4781 1.27351 24.3823 0.925438 26.3274C0.316314 29.7159 0.219082 33.6624 2.80402 36.3088C3.32004 36.8411 3.92888 37.2748 4.60065 37.5885C4.68255 37.6243 5.16883 37.5526 5.0511 37.44C4.62009 37.0251 4.32402 36.49 4.20141 35.9044L3.68954 36.0068C5.23087 37.4472 7.26166 38.2485 9.37127 38.2488C9.44805 38.2488 9.63745 38.2232 9.67328 38.131C9.67807 38.102 9.6885 38.0742 9.70399 38.0491C9.77565 37.9212 9.28938 37.9621 9.19212 38.0491L9.27401 37.9877L9.58627 37.957C9.52485 37.957 9.41734 37.7318 9.37639 37.6806C9.28318 37.5386 9.19774 37.3916 9.12046 37.2404C8.98132 36.9643 8.87151 36.6743 8.79285 36.3753L8.28098 36.4726C9.30267 37.338 10.5703 37.8608 11.905 37.9672C12.651 38.0129 13.3886 38.1505 14.1009 38.3767C14.7004 38.6157 15.3393 38.7407 15.9846 38.7453C16.0205 38.7453 16.3327 38.6992 16.2917 38.602L16 37.9212L15.5342 38.0389C16.2301 38.2812 16.9486 38.4526 17.6789 38.5508C18.0526 38.6071 18.4262 38.648 18.7999 38.6992C19.1736 38.7504 19.5574 38.8374 19.9311 38.8681C20.44 38.8895 20.9454 38.7746 21.395 38.5354C21.898 38.216 22.4667 38.0147 23.0586 37.9468C23.2838 37.9468 23.5142 37.7369 23.1661 37.7318C22.7006 37.7465 22.2435 37.8599 21.825 38.0645C21.3863 38.3503 20.893 38.542 20.3764 38.6276C20.0578 38.6084 19.7411 38.5638 19.4295 38.4945C19.0763 38.4433 18.718 38.4023 18.3648 38.3563C17.5797 38.2657 16.8061 38.0942 16.0563 37.8444C16 37.8444 15.5444 37.8188 15.5956 37.9621L15.8874 38.6429L16.1945 38.4996C15.5568 38.4747 14.929 38.3342 14.3415 38.085C13.7352 37.8945 13.1077 37.7793 12.4732 37.742C11.1571 37.6645 9.9008 37.1656 8.89011 36.319C8.81333 36.2525 8.37824 36.2678 8.37824 36.4163C8.51273 36.934 8.73991 37.423 9.04879 37.8597C9.16652 38.0184 9.24844 38.1362 9.45318 38.131C9.51426 38.1347 9.57538 38.1247 9.63207 38.1017C9.68877 38.0786 9.73956 38.0432 9.78075 37.9979H9.26889C9.2534 38.023 9.24296 38.0508 9.23818 38.0798L9.53507 37.9621C7.55796 37.9354 5.6632 37.1662 4.22699 35.8072C4.15533 35.7355 3.71513 35.756 3.71513 35.9095C3.83819 36.5224 4.14536 37.0831 4.59556 37.5168L5.04597 37.3684C1.86215 35.8993 0.915219 32.1627 1.10461 28.9481C1.28796 27.0193 1.60435 25.1055 2.05155 23.2203C2.40011 21.4136 2.6445 19.5883 2.78352 17.7536C2.88793 15.8313 3.13949 13.9198 3.53599 12.036C3.87487 10.6267 4.41077 9.2723 5.12789 8.0127C6.53553 5.53526 8.65977 3.29328 11.3573 2.24906C12.043 1.98461 12.7608 1.81248 13.4918 1.7372C13.8143 1.70137 14.1521 1.7372 14.4746 1.67577C14.9148 1.59899 15.3499 1.47102 15.7799 1.3533C17.3155 0.933563 18.8255 0.385864 20.4328 0.329558C21.9657 0.294727 23.4963 0.466904 24.9832 0.841427C26.4543 1.14443 27.8576 1.7134 29.1243 2.52035C31.5966 4.20952 33.3216 6.97873 34.3248 9.74793C34.8134 11.135 35.1565 12.5691 35.3486 14.0272C35.5149 15.5842 35.5765 17.1506 35.5329 18.7159C35.5532 20.6873 35.7019 22.6554 35.9782 24.6075C36.1062 25.5391 36.2649 26.4604 36.4594 27.3818C36.6855 28.3078 36.8159 29.2546 36.8484 30.2073C36.8484 33.6727 34.243 36.406 31.3048 37.8853C30.5505 38.2536 29.7704 38.5667 28.9707 38.8221L29.3597 38.8784C29.503 38.1464 29.6515 37.4093 29.7999 36.6722C29.8307 36.5033 29.3597 36.5698 29.2881 36.6722C28.6943 37.9109 27.3481 38.4433 26.1401 38.8886L26.5291 38.95C26.739 38.4382 27.0768 38.0184 27.2867 37.527C27.343 37.3939 27.0052 37.4349 26.9591 37.4451C25.7509 37.7186 24.5097 37.8168 23.2736 37.7369C23.1917 37.7369 22.9818 37.7369 22.9358 37.829C22.8897 37.9212 22.9767 37.9109 23.074 37.9109Z" fill="black"/>
<path d="M21.5945 33.1506L16.0612 33.079L15.708 33.1506" fill="white"/>
<path d="M21.5945 33.1506L16.0612 33.079L15.708 33.1506" stroke="black" stroke-miterlimit="10"/>
<path d="M32.0163 24.3464C31.9344 23.3995 31.5454 22.6009 30.4449 22.8569C30.1983 22.9343 29.9676 23.0557 29.7641 23.2152C29.9075 22.4423 30.015 21.654 30.0917 20.8555C30.8032 13.029 28.8581 5.06946 18.7692 5.06946H18.5337C8.44482 5.06946 6.49973 13.029 7.21635 20.8555C7.28801 21.654 7.3955 22.4423 7.53883 23.2152C7.33535 23.0557 7.1047 22.9343 6.85803 22.8569C5.7524 22.6009 5.36849 23.3995 5.28659 24.3464C5.14327 26.0561 6.27963 27.6531 7.92273 28.4874C8.38602 28.6808 8.87632 28.8017 9.37642 28.8457C11.2499 32.48 14.3006 34.9216 18.6515 34.7015C23.0023 34.9216 26.0531 32.48 27.9265 28.8457C28.4251 28.8025 28.9138 28.6816 29.3751 28.4874C31.0387 27.6531 32.1597 26.0561 32.0163 24.3464Z" fill="white" stroke="black" stroke-width="0.5" stroke-miterlimit="10"/>
<path d="M18.6157 19.5554C18.6873 20.1389 18.7283 20.7173 18.8256 21.2804C18.8677 21.8185 19.0437 22.3375 19.3374 22.7904C19.4046 22.8752 19.4914 22.9424 19.5905 22.9861C19.6895 23.0298 19.7976 23.0487 19.9056 23.0412C20.0295 23.0143 20.159 23.0343 20.269 23.0975C20.3169 23.1311 20.3561 23.1755 20.3837 23.227C20.4112 23.2786 20.4263 23.3359 20.4277 23.3944C20.4275 23.4587 20.4172 23.5227 20.397 23.5838C20.3362 23.7472 20.246 23.8981 20.1308 24.0291C19.9364 24.2691 19.7048 24.4765 19.4449 24.6433C19.1982 24.8336 18.8909 24.9282 18.5798 24.9095C18.834 24.7904 19.058 24.6154 19.235 24.3976C19.4202 24.1946 19.5912 23.9791 19.7469 23.7527C19.8166 23.6564 19.8734 23.5514 19.9158 23.4404C19.9176 23.4624 19.9245 23.4835 19.9361 23.5022C19.9477 23.5209 19.9635 23.5366 19.9824 23.5479C20.0643 23.5838 20.0285 23.5479 19.921 23.5479C19.7371 23.556 19.554 23.5187 19.3879 23.4392C19.2219 23.3598 19.078 23.2406 18.9689 23.0924C18.6246 22.5647 18.4463 21.9461 18.457 21.3162C18.4579 20.7257 18.511 20.1365 18.6157 19.5554Z" fill="black"/>
<path d="M10.2314 16.5661C10.4819 16.2235 10.7781 15.917 11.1119 15.655C11.4584 15.39 11.8505 15.1905 12.2687 15.0663C12.68 14.9571 13.1025 14.8953 13.5279 14.8821C13.95 14.8606 14.3729 14.9038 14.782 15.01L13.574 15.2813C13.1798 15.3734 12.7806 15.4502 12.412 15.5577C12.037 15.6671 11.6736 15.8128 11.3269 15.9928C10.9737 16.1515 10.6153 16.3613 10.2314 16.5661Z" fill="black"/>
<path d="M15.9692 26.9775C15.9692 26.9775 18.2522 29.5676 21.4053 26.9775H15.9692Z" fill="white" stroke="black" stroke-linecap="round" stroke-linejoin="round"/>
<path d="M14.1112 24.8685C14.1112 25.6517 13.1182 26.2915 11.8897 26.2915C10.6613 26.2915 9.67334 25.6517 9.67334 24.8685C9.67334 24.0854 10.6664 23.4404 11.8897 23.4404C13.1131 23.4404 14.1112 24.0803 14.1112 24.8685Z" fill="#FFEEF7"/>
<path d="M27.0718 16.5661C26.6879 16.3869 26.3295 16.1771 25.9764 15.9928C25.6319 15.8078 25.2701 15.657 24.8963 15.5423C24.5278 15.4348 24.1285 15.3581 23.7344 15.2659L22.5264 14.9946C22.9354 14.8884 23.3583 14.8452 23.7805 14.8667C24.2058 14.8799 24.6283 14.9417 25.0397 15.0509C25.4579 15.1751 25.8499 15.3746 26.1965 15.6396C26.5295 15.9067 26.824 16.2184 27.0718 16.5661Z" fill="black"/>
<path d="M23.1919 24.8685C23.1919 25.6517 24.1849 26.2915 25.4134 26.2915C26.6419 26.2915 27.6298 25.6517 27.6298 24.8685C27.6298 24.0854 26.6368 23.4404 25.4134 23.4404C24.1901 23.4404 23.1919 24.0803 23.1919 24.8685Z" fill="#FFEEF7"/>
<path d="M6.56104 24.756C6.85851 24.7822 7.13995 24.9023 7.36467 25.099C7.58923 25.2824 7.78733 25.496 7.95333 25.7337C8.11758 25.9717 8.24686 26.232 8.33723 26.5066C8.41824 26.7711 8.47813 27.0415 8.51638 27.3154C8.29815 27.13 8.11144 26.9105 7.96355 26.6653C7.80487 26.4401 7.67691 26.22 7.51823 26.0101C7.35955 25.8003 7.21622 25.5802 7.06266 25.3652C6.91253 25.1486 6.74476 24.9449 6.56104 24.756Z" fill="black"/>
<path d="M30.7419 24.756C30.554 24.9494 30.3827 25.1583 30.2301 25.3805C30.0765 25.5955 29.9178 25.8054 29.7745 26.0255C29.6312 26.2456 29.4878 26.4554 29.3292 26.6807C29.1813 26.9258 28.9946 27.1454 28.7764 27.3307C28.8188 27.0512 28.8839 26.7756 28.9709 26.5066C29.0613 26.232 29.1905 25.9717 29.3548 25.7337C29.5208 25.496 29.7189 25.2824 29.9434 25.099C30.1667 24.9033 30.4462 24.7833 30.7419 24.756Z" fill="black"/>
<path d="M13.6351 21.7206C13.4999 21.8561 13.3276 21.9485 13.1398 21.986C12.9521 22.0234 12.7575 22.0044 12.5806 21.9312C12.4037 21.8581 12.2525 21.7341 12.1461 21.5749C12.0397 21.4158 11.9829 21.2287 11.9829 21.0373C11.9829 20.8458 12.0397 20.6587 12.1461 20.4996C12.2525 20.3404 12.4037 20.2164 12.5806 20.1433C12.7575 20.0701 12.9521 20.0511 13.1398 20.0886C13.3276 20.1261 13.4999 20.2184 13.6351 20.3539C13.8149 20.5359 13.9157 20.7814 13.9157 21.0373C13.9157 21.2931 13.8149 21.5386 13.6351 21.7206Z" fill="black"/>
<path d="M23.6731 21.7206C23.8083 21.8561 23.9807 21.9485 24.1684 21.986C24.3561 22.0234 24.5508 22.0044 24.7277 21.9312C24.9046 21.8581 25.0558 21.7341 25.1622 21.5749C25.2685 21.4158 25.3254 21.2287 25.3254 21.0373C25.3254 20.8458 25.2685 20.6587 25.1622 20.4996C25.0558 20.3404 24.9046 20.2164 24.7277 20.1433C24.5508 20.0701 24.3561 20.0511 24.1684 20.0886C23.9807 20.1261 23.8083 20.2184 23.6731 20.3539C23.4934 20.5359 23.3926 20.7814 23.3926 21.0373C23.3926 21.2931 23.4934 21.5386 23.6731 21.7206Z" fill="black"/>
<path d="M11.004 4.79309C10.3434 7.31107 10.536 9.97698 11.5517 12.3739C12.3041 13.9402 13.722 15.9979 15.3549 16.7964C15.2013 15.3939 14.4642 14.0989 14.5512 12.5786C15.4521 13.9607 16.2763 15.4655 17.6737 16.52C19.3526 17.7894 21.4205 18.2706 23.3861 18.8644C22.6541 17.3953 21.2106 16.0491 20.9803 14.365C23.1046 16.3357 25.9301 17.4977 27.737 19.7806C28.3116 20.4685 28.7839 21.2357 29.1395 22.0584C29.3014 22.6269 29.362 23.2195 29.3187 23.809C30.7672 22.6061 31.4071 19.8625 31.5453 18.1324C31.7654 15.4553 31.8166 13.0137 30.7775 10.4851C30.1223 8.90339 27.9724 6.02669 26.7286 4.79309" fill="white"/>
<path d="M11.0041 4.79309C10.7474 5.89963 10.6577 7.03834 10.7379 8.17142C10.7999 9.29534 11.0258 10.4042 11.4084 11.4627C11.6074 11.9827 11.8541 12.483 12.1455 12.9574C12.4271 13.4385 12.7239 13.9146 13.0515 14.365C13.6792 15.2708 14.5034 16.0232 15.4624 16.5661L15.099 16.822C14.9843 16.1267 14.8131 15.442 14.5871 14.7745C14.3612 14.0616 14.2557 13.316 14.2749 12.5684L14.321 11.7903L14.7458 12.4455C15.2577 13.2338 15.7388 14.0374 16.2814 14.7694C16.8194 15.5067 17.4872 16.1398 18.2521 16.6377C19.7877 17.6615 21.6253 18.0812 23.422 18.6238L23.12 18.9821C22.7065 18.2434 22.2484 17.5306 21.7482 16.8476C21.2185 16.1204 20.8566 15.2847 20.6886 14.4009L20.5914 13.6945L21.1032 14.2063C21.9067 14.9238 22.7621 15.5808 23.6626 16.1719C24.6186 16.7666 25.5429 17.4107 26.4318 18.1017C27.2918 18.8218 28.0404 19.6653 28.6533 20.6047C28.9852 21.0772 29.2489 21.5942 29.4364 22.1403C29.5838 22.7009 29.6357 23.2823 29.59 23.8602L29.1703 23.6452C29.7831 23.0738 30.2485 22.3625 30.5267 21.5721C30.8374 20.7732 31.0589 19.9423 31.187 19.0947C31.3079 18.2462 31.3831 17.3919 31.4122 16.5354C31.4541 15.6735 31.437 14.8099 31.3611 13.9504C31.2191 12.2335 30.6943 10.5702 29.8255 9.08255C29.3853 8.3301 28.899 7.60325 28.3871 6.89687C27.8815 6.183 27.3346 5.49934 26.7491 4.8494C28.0033 6.08222 29.1252 7.44263 30.0967 8.90851C31.1221 10.3845 31.7353 12.1073 31.8729 13.8992C31.953 14.7824 31.9718 15.6701 31.9292 16.5558C31.9008 17.4415 31.8239 18.3249 31.6989 19.2022C31.5615 20.0777 31.3299 20.9358 31.0079 21.7615C30.6974 22.6311 30.181 23.4126 29.503 24.0393L29.0525 24.4284L29.0884 23.8192C29.1261 23.3033 29.0794 22.7846 28.9502 22.2836C28.7753 21.7893 28.5343 21.3209 28.2336 20.8913C27.6486 19.9931 26.9326 19.1874 26.1093 18.5009C24.4611 17.1138 22.475 16.1003 20.8268 14.5749L21.2517 14.3548C21.4081 15.1629 21.7439 15.9256 22.2344 16.5865C22.7436 17.2893 23.2119 18.0207 23.637 18.7773L23.9031 19.2892L23.3094 19.1254C21.5332 18.5828 19.6444 18.1426 18.0064 17.0779C17.1943 16.546 16.4836 15.8735 15.9078 15.0919C15.3293 14.3292 14.8431 13.5153 14.3363 12.7322L14.8072 12.6093C14.7897 13.3037 14.8901 13.996 15.1041 14.6568C15.3305 15.3538 15.5016 16.0675 15.616 16.7913L15.6672 17.2622L15.2526 17.0523C14.2175 16.4739 13.3282 15.6668 12.6523 14.6926C11.9368 13.7695 11.3845 12.7308 11.0194 11.6214C10.6844 10.5124 10.512 9.36065 10.5076 8.20214C10.4903 7.04659 10.6579 5.89571 11.0041 4.79309Z" fill="black"/>
</svg>
