<svg width="34" height="40" viewBox="0 0 34 40" fill="none" xmlns="http://www.w3.org/2000/svg">
<path d="M32.76 26.6391C32.6614 25.5101 32.212 24.5619 30.8856 24.8689C30.5909 24.9554 30.3168 25.1008 30.0799 25.2964C30.2498 24.3701 30.3759 23.4329 30.4636 22.4792C31.3131 13.1619 29.0002 3.66919 16.9754 3.66919H16.6959C4.67102 3.66919 2.35814 13.1509 3.20766 22.4792C3.28987 23.4329 3.42138 24.3701 3.59129 25.2964C3.35255 25.1005 3.07663 24.9551 2.78014 24.8689C1.46475 24.5619 1.00438 25.5101 0.911209 26.6391C0.735824 28.678 2.09505 30.5853 4.05169 31.5718C4.6048 31.7988 5.18839 31.9429 5.7836 31.9993C8.01428 36.3292 11.6481 39.2395 16.8329 38.9709C22.0177 39.2395 25.6569 36.3292 27.8821 31.9993C28.4773 31.9429 29.0609 31.7988 29.6141 31.5718C31.5762 30.5853 32.9354 28.678 32.76 26.6391Z" fill="white" stroke="black" stroke-width="0.5" stroke-linecap="round" stroke-linejoin="round"/>
<path d="M17.0684 21.9312C17.1634 22.4144 17.2916 22.8905 17.452 23.3562C17.6 23.822 17.7261 24.3208 17.8576 24.7757C18.2009 25.7221 18.438 26.7037 18.5646 27.7024C18.5673 28.004 18.4802 28.2996 18.3142 28.5514C18.1483 28.8033 17.9111 29 17.6329 29.1165C17.3624 29.2476 17.0574 29.2898 16.7614 29.237C16.6068 29.2058 16.461 29.1404 16.3349 29.0456C16.2087 28.9508 16.1054 28.8289 16.0325 28.689C15.824 28.216 15.6926 27.7127 15.6434 27.1982C15.586 26.7035 15.5641 26.2053 15.5776 25.7074C15.6817 26.1897 15.7749 26.6775 15.9119 27.1489C16.0161 27.6103 16.1801 28.0562 16.3997 28.4752C16.5128 28.629 16.6813 28.7328 16.8695 28.7645C17.0578 28.7962 17.251 28.7534 17.4082 28.6451C17.5872 28.5677 17.74 28.4401 17.848 28.2776C17.956 28.1152 18.0145 27.9249 18.0165 27.7298C17.9009 26.7681 17.7178 25.8158 17.4685 24.8798C17.3643 24.3756 17.304 23.9042 17.2109 23.411C17.117 22.9233 17.0693 22.4278 17.0684 21.9312Z" fill="black"/>
<path d="M6.80273 17.3383C6.95319 16.8007 7.238 16.3104 7.63034 15.9133C8.03411 15.5097 8.5339 15.2155 9.08272 15.0583C9.60129 14.914 10.1429 14.8712 10.6777 14.9322C11.2322 14.9753 11.7654 15.1644 12.2232 15.4803C11.7868 15.7696 11.3223 16.0138 10.8366 16.2093C10.4112 16.3723 9.97764 16.5132 9.53764 16.6313L8.32637 16.993C7.83248 17.1629 7.32162 17.2787 6.80273 17.3383Z" fill="black"/>
<path d="M20.11 31.1005C16.3612 34.1861 13.6372 31.1005 13.6372 31.1005H20.11Z" fill="white" stroke="black" stroke-width="0.5" stroke-linecap="round" stroke-linejoin="round"/>
<path d="M26.8679 17.3383C26.3491 17.2811 25.8381 17.1672 25.3442 16.9984L24.1275 16.6367C23.6891 16.5194 23.2573 16.3786 22.834 16.2147C22.3466 16.0194 21.8801 15.7751 21.4419 15.4858C21.903 15.1724 22.4373 14.9836 22.993 14.9377C23.5281 14.8813 24.0692 14.9259 24.5879 15.0692C25.1356 15.229 25.6348 15.5229 26.0403 15.9242C26.4292 16.3196 26.7136 16.8056 26.8679 17.3383Z" fill="black"/>
<path d="M2.4292 27.1324C2.77735 27.1779 3.10385 27.3268 3.36642 27.5599C3.63306 27.7779 3.86743 28.0325 4.06249 28.3163C4.25791 28.5984 4.41286 28.9065 4.52286 29.2316C4.63 29.5485 4.71426 29.8727 4.77499 30.2017C4.52683 29.9706 4.31112 29.7069 4.13375 29.4179C3.95288 29.1439 3.79942 28.8699 3.58567 28.6287C3.37192 28.3875 3.22394 28.1135 3.03759 27.8614C2.85735 27.6004 2.6537 27.3565 2.4292 27.1324Z" fill="black"/>
<path d="M31.2417 27.1324C31.0077 27.3552 30.7949 27.5993 30.606 27.8614C30.4196 28.1135 30.2278 28.3656 30.0579 28.6287C29.888 28.8918 29.7181 29.1439 29.5098 29.4179C29.3344 29.7068 29.1205 29.9705 28.874 30.2017C28.9348 29.8727 29.019 29.5485 29.1262 29.2316C29.2342 28.9067 29.3874 28.5986 29.5811 28.3163C29.7793 28.035 30.0132 27.7808 30.2771 27.5599C30.5477 27.3227 30.8842 27.1736 31.2417 27.1324Z" fill="black"/>
<path d="M10.8643 23.4986C10.7021 23.6591 10.496 23.768 10.272 23.8117C10.048 23.8553 9.81614 23.8316 9.60555 23.7437C9.39497 23.6559 9.21508 23.5076 9.08855 23.3177C8.96203 23.1278 8.89453 22.9047 8.89453 22.6765C8.89453 22.4483 8.96203 22.2252 9.08855 22.0353C9.21508 21.8454 9.39497 21.6972 9.60555 21.6093C9.81614 21.5214 10.048 21.4978 10.272 21.5414C10.496 21.585 10.7021 21.6939 10.8643 21.8544C10.9737 21.9616 11.0605 22.0895 11.1199 22.2307C11.1792 22.3718 11.2097 22.5234 11.2097 22.6765C11.2097 22.8297 11.1792 22.9812 11.1199 23.1224C11.0605 23.2636 10.9737 23.3915 10.8643 23.4986Z" fill="black"/>
<path d="M22.8176 23.4986C22.9798 23.6591 23.1859 23.768 23.4099 23.8117C23.6339 23.8553 23.8658 23.8316 24.0764 23.7437C24.287 23.6559 24.4668 23.5076 24.5934 23.3177C24.7199 23.1278 24.7874 22.9047 24.7874 22.6765C24.7874 22.4483 24.7199 22.2252 24.5934 22.0353C24.4668 21.8454 24.287 21.6972 24.0764 21.6093C23.8658 21.5214 23.6339 21.4978 23.4099 21.5414C23.1859 21.585 22.9798 21.6939 22.8176 21.8544C22.7083 21.9616 22.6214 22.0895 22.5621 22.2307C22.5027 22.3718 22.4722 22.5234 22.4722 22.6765C22.4722 22.8297 22.5027 22.9812 22.5621 23.1224C22.6214 23.2636 22.7083 23.3915 22.8176 23.4986Z" fill="black"/>
<path d="M8.14025 27.4173C8.21293 27.4173 8.28261 27.3885 8.334 27.3371C8.3854 27.2857 8.41429 27.216 8.41429 27.1433C8.41429 27.0706 8.3854 27.0009 8.334 26.9495C8.28261 26.8981 8.21293 26.8693 8.14025 26.8693C8.06757 26.8693 7.99785 26.8981 7.94646 26.9495C7.89507 27.0009 7.86621 27.0706 7.86621 27.1433C7.86621 27.216 7.89507 27.2857 7.94646 27.3371C7.99785 27.3885 8.06757 27.4173 8.14025 27.4173Z" fill="black"/>
<path d="M8.19494 28.4642C8.26762 28.4642 8.33733 28.4353 8.38873 28.384C8.44012 28.3326 8.46898 28.2629 8.46898 28.1902C8.46898 28.1175 8.44012 28.0478 8.38873 27.9964C8.33733 27.945 8.26762 27.9161 8.19494 27.9161C8.12226 27.9161 8.05254 27.945 8.00115 27.9964C7.94976 28.0478 7.9209 28.1175 7.9209 28.1902C7.9209 28.2629 7.94976 28.3326 8.00115 28.384C8.05254 28.4353 8.12226 28.4642 8.19494 28.4642Z" fill="black"/>
<path d="M10.2394 27.4503H10.1791C10.1452 27.4397 10.1089 27.4397 10.075 27.4503C10.0412 27.4599 10.0108 27.4789 9.98729 27.5051C9.96119 27.5297 9.94064 27.5596 9.92701 27.5928C9.91886 27.627 9.91886 27.6627 9.92701 27.6969V27.7737C9.94115 27.8188 9.96551 27.8601 9.99823 27.8942L10.0531 27.9326C10.094 27.9586 10.1416 27.9719 10.1901 27.971H10.2504C10.2846 27.9791 10.3203 27.9791 10.3545 27.971C10.3873 27.9592 10.4173 27.9405 10.4422 27.9162C10.4688 27.892 10.4895 27.862 10.5025 27.8285C10.5107 27.7924 10.5107 27.7549 10.5025 27.7188V27.6476C10.4909 27.6014 10.4661 27.5595 10.4312 27.527L10.3764 27.4832C10.3345 27.4596 10.2875 27.4465 10.2394 27.4448V27.4503Z" fill="black"/>
<path d="M9.36242 27.0666C9.4351 27.0666 9.50481 27.0378 9.55621 26.9864C9.6076 26.935 9.63646 26.8653 9.63646 26.7926C9.63646 26.7199 9.6076 26.6502 9.55621 26.5988C9.50481 26.5474 9.4351 26.5186 9.36242 26.5186C9.28974 26.5186 9.22002 26.5474 9.16863 26.5988C9.11724 26.6502 9.08838 26.7199 9.08838 26.7926C9.08838 26.8653 9.11724 26.935 9.16863 26.9864C9.22002 27.0378 9.28974 27.0666 9.36242 27.0666Z" fill="black"/>
<path d="M7.2633 26.1349C7.33598 26.1349 7.40569 26.106 7.45708 26.0546C7.50848 26.0032 7.53734 25.9335 7.53734 25.8608C7.53734 25.7882 7.50848 25.7185 7.45708 25.6671C7.40569 25.6157 7.33598 25.5868 7.2633 25.5868C7.19062 25.5868 7.12093 25.6157 7.06954 25.6671C7.01815 25.7185 6.98926 25.7882 6.98926 25.8608C6.98926 25.9335 7.01815 26.0032 7.06954 26.0546C7.12093 26.106 7.19062 26.1349 7.2633 26.1349Z" fill="black"/>
<path d="M6.3258 27.4722C6.39848 27.4722 6.46816 27.4433 6.51955 27.3919C6.57094 27.3405 6.59984 27.2708 6.59984 27.1981C6.59984 27.1254 6.57094 27.0557 6.51955 27.0043C6.46816 26.9529 6.39848 26.9241 6.3258 26.9241C6.25312 26.9241 6.1834 26.9529 6.13201 27.0043C6.08062 27.0557 6.05176 27.1254 6.05176 27.1981C6.05176 27.2708 6.08062 27.3405 6.13201 27.3919C6.1834 27.4433 6.25312 27.4722 6.3258 27.4722Z" fill="black"/>
<path d="M23.6944 26.8912C23.7671 26.8912 23.8368 26.8623 23.8882 26.8109C23.9396 26.7596 23.9685 26.6899 23.9685 26.6172C23.9685 26.5445 23.9396 26.4748 23.8882 26.4234C23.8368 26.372 23.7671 26.3431 23.6944 26.3431C23.6218 26.3431 23.5521 26.372 23.5007 26.4234C23.4493 26.4748 23.4204 26.5445 23.4204 26.6172C23.4204 26.6899 23.4493 26.7596 23.5007 26.8109C23.5521 26.8623 23.6218 26.8912 23.6944 26.8912Z" fill="black"/>
<path d="M24.9166 25.7842C24.9893 25.7842 25.059 25.7553 25.1104 25.7039C25.1618 25.6525 25.1907 25.5828 25.1907 25.5101C25.1907 25.4374 25.1618 25.3677 25.1104 25.3164C25.059 25.265 24.9893 25.2361 24.9166 25.2361C24.8439 25.2361 24.7742 25.265 24.7228 25.3164C24.6714 25.3677 24.6426 25.4374 24.6426 25.5101C24.6426 25.5828 24.6714 25.6525 24.7228 25.7039C24.7742 25.7553 24.8439 25.7842 24.9166 25.7842Z" fill="black"/>
<path d="M25.5035 27.5928C25.5762 27.5928 25.6459 27.5639 25.6973 27.5125C25.7487 27.4611 25.7776 27.3914 25.7776 27.3187C25.7776 27.246 25.7487 27.1763 25.6973 27.1249C25.6459 27.0735 25.5762 27.0447 25.5035 27.0447C25.4309 27.0447 25.3611 27.0735 25.3097 27.1249C25.2584 27.1763 25.2295 27.246 25.2295 27.3187C25.2295 27.3914 25.2584 27.4611 25.3097 27.5125C25.3611 27.5639 25.4309 27.5928 25.5035 27.5928Z" fill="black"/>
<path d="M27.1969 27.0063C27.2696 27.0063 27.3393 26.9775 27.3907 26.9261C27.4421 26.8747 27.4709 26.805 27.4709 26.7323C27.4709 26.6596 27.4421 26.5899 27.3907 26.5385C27.3393 26.4871 27.2696 26.4583 27.1969 26.4583C27.1242 26.4583 27.0545 26.4871 27.0031 26.5385C26.9517 26.5899 26.9229 26.6596 26.9229 26.7323C26.9229 26.805 26.9517 26.8747 27.0031 26.9261C27.0545 26.9775 27.1242 27.0063 27.1969 27.0063Z" fill="black"/>
<path d="M26.5558 26.0143C26.6285 26.0143 26.6982 25.9854 26.7496 25.934C26.801 25.8826 26.8298 25.8129 26.8298 25.7402C26.8298 25.6675 26.801 25.5978 26.7496 25.5465C26.6982 25.4951 26.6285 25.4662 26.5558 25.4662C26.4831 25.4662 26.4134 25.4951 26.362 25.5465C26.3106 25.5978 26.2817 25.6675 26.2817 25.7402C26.2817 25.8129 26.3106 25.8826 26.362 25.934C26.4134 25.9854 26.4831 26.0143 26.5558 26.0143Z" fill="black"/>
<path d="M24.7249 27.8449V27.7847C24.7358 27.7508 24.7358 27.7144 24.7249 27.6805C24.7169 27.646 24.6976 27.6151 24.6701 27.5928C24.6459 27.5662 24.6159 27.5455 24.5824 27.5325C24.5463 27.5243 24.5088 27.5243 24.4728 27.5325H24.4015C24.3549 27.5432 24.3127 27.5681 24.2809 27.6038L24.2371 27.6586C24.2129 27.7003 24.1997 27.7474 24.1987 27.7956V27.8559C24.2001 27.8922 24.2094 27.9278 24.2261 27.96C24.2375 27.993 24.2563 28.023 24.281 28.0477C24.3056 28.0724 24.3356 28.0911 24.3686 28.1025C24.4006 28.12 24.4363 28.1294 24.4728 28.1299H24.5495C24.5937 28.1137 24.6345 28.0895 24.6701 28.0587L24.7139 28.0039C24.7358 27.9615 24.747 27.9145 24.7468 27.8669L24.7249 27.8449Z" fill="black"/>
<path d="M26.4352 28.3491C26.5079 28.3491 26.5775 28.3202 26.6289 28.2688C26.6803 28.2174 26.7092 28.1477 26.7092 28.0751C26.7092 28.0024 26.6803 27.9327 26.6289 27.8813C26.5775 27.8299 26.5079 27.801 26.4352 27.801C26.3625 27.801 26.2928 27.8299 26.2414 27.8813C26.19 27.9327 26.1611 28.0024 26.1611 28.0751C26.1611 28.1477 26.19 28.2174 26.2414 28.2688C26.2928 28.3202 26.3625 28.3491 26.4352 28.3491Z" fill="black"/>
<path d="M29.6578 4.96263C27.9204 3.83359 26.1336 3.47734 24.2263 2.77032C23.9468 2.64426 21.7983 0.983585 19.5951 0.578007C13.5662 -0.561995 6.95639 0.386182 3.44321 5.94918C1.91107 8.40937 1.03372 11.2206 0.894629 14.1155C0.732648 16.4437 1.01348 18.7814 1.72223 21.0049C2.03464 21.9147 2.32511 24.0467 2.78002 24.8414C3.02665 25.2799 4.42426 26.672 4.77503 25.9979C4.59417 24.7099 4.52838 17.0587 5.10387 15.0363C5.54233 13.4852 6.40829 12.4439 7.50445 11.1998C8.37765 10.3067 9.4189 9.59514 10.5682 9.10611C10.8532 9.78024 10.2942 10.4763 9.78447 10.8764C11.5767 11.3258 14.3609 10.3283 16.0545 9.62678C17.1506 9.15543 19.2278 7.76879 20.1157 5.9711C20.0171 6.68908 18.751 8.55802 18.2906 9.05677C19.3429 9.05677 21.3873 7.82908 22.0505 7.02889C21.4421 9.06226 20.7022 9.40207 20.3514 10.279C22.2368 9.73092 23.4207 8.63476 24.4784 6.79869C25.2403 8.44293 26.4186 10.0104 27.1695 11.6601C27.7176 12.9262 29.3618 14.9486 29.4988 20.8021C29.5427 22.545 29.74 23.8384 29.729 25.521C30.0085 24.4797 29.3673 27.2859 30.8855 24.8414C31.7484 23.2891 32.4412 21.6482 32.9517 19.9471C33.9273 14.7294 34.8755 8.33331 29.6578 4.96263Z" fill="black"/>
</svg>
