<svg width="36" height="39" viewBox="0 0 36 39" fill="none" xmlns="http://www.w3.org/2000/svg">
<path d="M21.6194 36.5375L14.5403 36.4556L14.0898 36.5375" fill="white"/>
<path d="M21.6194 36.5375L14.5403 36.4556L14.0898 36.5375" stroke="black" stroke-linecap="round" stroke-linejoin="round"/>
<path d="M34.9431 25.2713C34.8407 24.0582 34.3442 23.0395 32.9315 23.3671C32.6143 23.4629 32.3188 23.6194 32.0613 23.8278C32.2456 22.8348 32.3838 21.8264 32.4759 20.8027C33.387 10.7854 30.9045 0.599243 17.9849 0.599243H17.6829C4.76336 0.599243 2.2808 10.7854 3.19192 20.8027C3.28406 21.8264 3.42055 22.8348 3.60141 23.8278C3.34608 23.619 3.05214 23.4625 2.73635 23.3671C1.32359 23.0395 0.827086 24.0582 0.724712 25.2713C0.540439 27.4621 1.99413 29.5096 4.10303 30.5743C4.69576 30.8202 5.32214 30.9755 5.96111 31.0349C8.35666 35.6878 12.2622 38.8102 17.8313 38.5236C23.4005 38.8102 27.306 35.6878 29.7016 31.0349C30.3405 30.9755 30.9669 30.8202 31.5597 30.5743C33.6686 29.5096 35.1274 27.4621 34.9431 25.2713Z" fill="white" stroke="black" stroke-width="0.5" stroke-linecap="round" stroke-linejoin="round"/>
<path d="M17.7703 25.9931C18.0641 25.9391 18.3417 25.8188 18.5821 25.6414C18.8225 25.464 19.0192 25.2342 19.1575 24.9693C19.2994 24.7453 19.3718 24.4843 19.3654 24.2191C19.3591 23.954 19.2742 23.6967 19.1216 23.4798C18.9372 23.2869 18.7007 23.1517 18.4408 23.0908C18.1105 23.0019 17.8009 22.8489 17.5297 22.6403C17.3996 22.5181 17.2958 22.3706 17.2245 22.2069C17.1532 22.0433 17.116 21.8668 17.1151 21.6883C17.1023 21.5264 17.1023 21.3638 17.1151 21.202C17.1458 21.0433 17.1765 20.8846 17.2124 20.7311C17.2533 21.3504 17.3352 22.0363 17.7652 22.3281C18.0148 22.4707 18.2864 22.5711 18.5688 22.625C18.9218 22.6993 19.2445 22.8776 19.4953 23.1369C19.7219 23.43 19.8449 23.7901 19.8449 24.1606C19.8449 24.5311 19.7219 24.8912 19.4953 25.1843C19.3112 25.466 19.0523 25.6909 18.7477 25.8337C18.443 25.9766 18.1046 26.0317 17.7703 25.9931Z" fill="black"/>
<path d="M7.06201 15.2847C7.25218 14.7301 7.57355 14.2296 7.99874 13.8259C8.4336 13.4137 8.95979 13.1103 9.53434 12.9403C10.0834 12.7868 10.6555 12.7331 11.2235 12.7817C11.8082 12.8146 12.3758 12.9904 12.8768 13.2935C12.3969 13.567 11.8932 13.7966 11.3719 13.9794C10.8601 14.1535 10.3994 14.2917 9.95917 14.4145C9.51897 14.5374 9.09926 14.6756 8.63857 14.8394C8.1276 15.0352 7.59991 15.1842 7.06201 15.2847Z" fill="black"/>
<path d="M21.3586 31.9614C17.3302 35.2732 14.4023 31.9614 14.4023 31.9614H21.3586Z" fill="white" stroke="black" stroke-width="0.5" stroke-miterlimit="10"/>
<path d="M28.6112 15.2847C28.0697 15.1855 27.5385 15.0365 27.0244 14.8394C26.5637 14.6756 26.144 14.5476 25.7038 14.4145C25.2636 14.2814 24.7773 14.1535 24.291 13.9794C23.7698 13.7966 23.2661 13.567 22.7861 13.2935C23.2871 12.9904 23.8548 12.8146 24.4395 12.7817C25.0075 12.7331 25.5796 12.7868 26.1286 12.9403C26.7032 13.1103 27.2294 13.4137 27.6643 13.8259C28.0915 14.2299 28.4161 14.73 28.6112 15.2847Z" fill="black"/>
<path d="M2.35791 25.8036C2.72906 25.8627 3.0745 26.0301 3.35094 26.2847C3.62916 26.5228 3.87676 26.7944 4.08803 27.0935C4.30023 27.3959 4.47229 27.7245 4.5999 28.0712C4.72487 28.4048 4.82581 28.7469 4.90191 29.0949C4.64712 28.8385 4.42528 28.5514 4.24158 28.2401C4.05219 27.9432 3.88838 27.6566 3.68876 27.3801C3.48913 27.1037 3.2895 26.8273 3.08475 26.556C2.87008 26.2799 2.62641 26.0277 2.35791 25.8036Z" fill="black"/>
<path d="M33.3104 25.8036C33.0517 26.0318 32.8167 26.2857 32.6091 26.5612C32.3993 26.8324 32.1945 27.1037 32.0051 27.3853C31.8157 27.6668 31.6417 27.9483 31.4472 28.2452C31.267 28.5575 31.0468 28.8449 30.792 29.1C30.8688 28.7527 30.9679 28.4108 31.0889 28.0763C31.2167 27.7297 31.3887 27.4011 31.6008 27.0986C31.812 26.7996 32.0596 26.5279 32.3378 26.2899C32.608 26.0369 32.9459 25.868 33.3104 25.8036Z" fill="black"/>
<path d="M11.423 21.9134C11.2495 22.0885 11.0279 22.2082 10.7863 22.2571C10.5447 22.3061 10.294 22.2822 10.066 22.1884C9.83802 22.0946 9.64306 21.9352 9.50586 21.7304C9.36865 21.5256 9.29541 21.2846 9.29541 21.0381C9.29541 20.7916 9.36865 20.5506 9.50586 20.3458C9.64306 20.141 9.83802 19.9816 10.066 19.8878C10.294 19.794 10.5447 19.7701 10.7863 19.819C11.0279 19.868 11.2495 19.9876 11.423 20.1628C11.6549 20.3951 11.7852 20.7099 11.7852 21.0381C11.7852 21.3663 11.6549 21.6811 11.423 21.9134Z" fill="black"/>
<path d="M24.2657 21.9134C24.4388 22.0868 24.6596 22.205 24.8999 22.2529C25.1403 22.3008 25.3894 22.2764 25.6158 22.1827C25.8423 22.089 26.0358 21.9302 26.172 21.7265C26.3082 21.5227 26.3809 21.2832 26.3809 21.0381C26.3809 20.793 26.3082 20.5535 26.172 20.3497C26.0358 20.146 25.8423 19.9872 25.6158 19.8935C25.3894 19.7998 25.1403 19.7754 24.8999 19.8233C24.6596 19.8712 24.4388 19.9894 24.2657 20.1628C24.1502 20.2775 24.0586 20.4138 23.9961 20.5641C23.9335 20.7143 23.9014 20.8754 23.9014 21.0381C23.9014 21.2008 23.9335 21.3619 23.9961 21.5121C24.0586 21.6624 24.1502 21.7987 24.2657 21.9134Z" fill="black"/>
<path d="M14.8779 17.0814C15.6457 17.8497 16.1684 18.8283 16.38 19.8936C16.5916 20.9589 16.4825 22.063 16.0667 23.0664C15.6509 24.0698 14.9469 24.9273 14.0438 25.5307C13.1407 26.134 12.079 26.456 10.9928 26.456C9.90673 26.456 8.84501 26.134 7.94188 25.5307C7.03875 24.9273 6.33478 24.0698 5.91896 23.0664C5.50314 22.063 5.39413 20.9589 5.60573 19.8936C5.81733 18.8283 6.34006 17.8497 7.10778 17.0814C8.1399 16.0543 9.53674 15.4777 10.9928 15.4777C12.449 15.4777 13.8458 16.0543 14.8779 17.0814Z" stroke="black" stroke-width="0.5" stroke-miterlimit="10"/>
<path d="M25.3205 26.4588C28.3538 26.4588 30.8128 23.9998 30.8128 20.9665C30.8128 17.9331 28.3538 15.4741 25.3205 15.4741C22.2871 15.4741 19.8281 17.9331 19.8281 20.9665C19.8281 23.9998 22.2871 26.4588 25.3205 26.4588Z" stroke="black" stroke-width="0.5" stroke-miterlimit="10"/>
<path d="M16.4805 20.9972H19.8281" stroke="black" stroke-width="0.5" stroke-miterlimit="10"/>
<path d="M13.6803 31.8129C11.7864 31.8129 11.4435 29.7091 12.8511 28.583C14.0233 27.6207 16.2346 27.7487 17.6576 27.6514C18.9987 27.5593 21.1332 27.8459 22.3258 28.5421C22.7011 28.7606 23.0022 29.0867 23.1901 29.4781C23.3781 29.8696 23.4444 30.3085 23.3803 30.738C23.2369 31.69 22.5254 31.9357 21.5785 31.8692C21.5785 31.8692 14.2332 31.8027 13.6803 31.8129Z" fill="white" stroke="black" stroke-width="0.5" stroke-linecap="round" stroke-linejoin="round"/>
<path d="M3.62718 23.8073C3.78074 24.0479 4.02134 24.6007 4.41548 24.7594C6.23261 25.1535 4.80962 21.1251 4.41548 20.4904C6.94411 19.0725 5.12697 11.4918 1.72817 14.65C-0.641782 16.8613 0.46383 21.3606 2.43964 23.4132L3.62718 23.8073Z" fill="white" stroke="black" stroke-width="0.5" stroke-linecap="round" stroke-linejoin="round"/>
<path d="M32.2098 23.8073C32.0562 24.0479 31.8157 24.6007 31.4215 24.7594C29.6044 25.1535 31.0274 21.1251 31.4215 20.4904C28.8929 19.0725 30.71 11.4918 34.1088 14.65C36.4788 16.8613 35.3731 21.3606 33.3973 23.4132L32.2098 23.8073Z" fill="white" stroke="black" stroke-width="0.5" stroke-linecap="round" stroke-linejoin="round"/>
</svg>
