<svg width="31" height="39" viewBox="0 0 31 39" fill="none" xmlns="http://www.w3.org/2000/svg">
<path d="M29.4212 23.9441C28.8354 21.2818 28.2657 18.7207 28.4361 15.9253C28.91 8.09819 20.4493 -2.78524 12.0311 1.6874C10.2474 2.63518 8.19209 2.14532 6.41368 3.11439C5.10036 3.85402 4.03514 4.96555 3.35204 6.30914C2.14869 8.67325 2.00493 11.4314 2.0209 14.0883C2.01251 16.477 1.88276 18.8637 1.63218 21.2392C1.51504 22.4533 1.44582 23.7099 1.22751 24.9079C0.695054 27.9056 0.317025 30.5253 1.47778 33.4592C1.8034 34.4982 2.4862 35.3885 3.40528 35.9724C3.28012 35.3179 3.22124 34.6525 3.22956 33.9863C3.94415 35.4554 5.20859 36.584 6.74913 37.1278C7.30533 37.3075 7.89367 37.3657 8.47429 37.2982C23.4363 39.4759 26.3276 35.999 27.7013 34.5134C28.3886 33.6467 28.853 32.6247 29.0538 31.537C29.2028 32.0055 29.3466 32.4741 29.4904 32.9427C30.7044 30.898 30.0601 26.846 29.4212 23.9441Z" fill="white" stroke="black" stroke-width="0.5" stroke-linecap="round" stroke-linejoin="round"/>
<path d="M7.32959 34.9021C7.48933 36.2971 9.99188 38.6293 11.5573 38.4909L7.32959 34.9021Z" fill="white"/>
<path d="M7.32959 34.9021C7.48933 36.2971 9.99188 38.6293 11.5573 38.4909" stroke="black" stroke-width="0.5" stroke-linecap="round" stroke-linejoin="round"/>
<path d="M23.186 20.0838C23.4363 18.4065 22.792 14.28 22.4406 13.4919C22.4406 13.4919 18.4631 12.6027 17.3023 12.0862C15.9341 11.4495 14.745 10.4836 13.8414 9.27487C13.0848 8.21397 12.4406 7.07727 11.9192 5.88312C11.7435 6.35168 9.65627 12.4057 5.91309 13.4547C5.67349 13.5239 5.73205 13.9871 5.71076 14.3705C5.65219 15.297 5.80659 19.6951 6.26983 20.0412C5.91171 19.9517 5.59562 19.741 5.3753 19.4448L5.26881 19.4075C4.39025 19.2052 4.08674 19.8388 4.02284 20.5896C4.0074 21.2828 4.19801 21.965 4.57051 22.5498C4.94301 23.1346 5.48069 23.5958 6.11543 23.8749C6.48181 24.029 6.86969 24.126 7.26552 24.1624C8.75108 27.043 11.1738 28.9545 14.6241 28.8054C18.0797 28.9811 20.4811 27.043 21.9827 24.1624C22.3802 24.1259 22.7698 24.0289 23.1381 23.8749C23.7728 23.5958 24.3105 23.1346 24.683 22.5498C25.0555 21.965 25.2461 21.2828 25.2306 20.5896C25.1667 19.8388 24.8579 19.2052 23.9847 19.4075H23.9474C23.7883 19.7212 23.5162 19.9628 23.186 20.0838Z" fill="white" stroke="black" stroke-width="0.5" stroke-miterlimit="10"/>
<path d="M7.94727 14.3971C8.04063 14.0423 8.22404 13.7177 8.47972 13.4546C8.7515 13.1898 9.0843 12.9959 9.44877 12.8902C9.79492 12.7935 10.1562 12.7628 10.5137 12.7997C10.8837 12.8283 11.2398 12.9531 11.5467 13.1618C11.2536 13.3488 10.9434 13.5075 10.6202 13.6356C10.322 13.7475 10.0185 13.838 9.75227 13.9125L8.94296 14.1574C8.62033 14.2718 8.28662 14.3522 7.94727 14.3971Z" fill="black"/>
<path d="M12.4941 22.6714C12.8309 22.8717 13.1879 23.0359 13.5591 23.1613C13.903 23.2716 14.2629 23.3238 14.624 23.3157C14.9865 23.3009 15.3451 23.2346 15.6889 23.1187C15.8752 23.0655 16.0456 22.9803 16.2213 22.9164C16.3971 22.8525 16.5781 22.746 16.7538 22.6714C16.6302 22.837 16.4931 22.9919 16.3438 23.1347C16.178 23.2717 15.9997 23.3929 15.8113 23.4968C15.4335 23.7108 15.0099 23.8313 14.576 23.8482C14.1572 23.8473 13.7456 23.7386 13.381 23.5325C13.0163 23.3264 12.7109 23.0299 12.4941 22.6714Z" fill="black"/>
<path d="M10.6469 18.529C10.5836 18.6225 10.5003 18.7008 10.4032 18.7584C10.306 18.8159 10.1973 18.8513 10.0849 18.862C9.97248 18.8727 9.85907 18.8584 9.75281 18.8202C9.64654 18.782 9.55005 18.7207 9.4702 18.6409C9.39034 18.561 9.3291 18.4645 9.29087 18.3582C9.25264 18.252 9.23836 18.1386 9.24905 18.0262C9.25973 17.9137 9.29512 17.8051 9.35268 17.7079C9.41025 17.6107 9.48856 17.5275 9.58203 17.4641C9.72959 17.364 9.90742 17.3185 10.0849 17.3354C10.2624 17.3523 10.4284 17.4305 10.5545 17.5565C10.6806 17.6826 10.7588 17.8487 10.7757 18.0262C10.7925 18.2036 10.747 18.3815 10.6469 18.529Z" fill="black"/>
<path d="M11.0249 20.9943C11.0249 21.6226 10.2368 22.1231 9.26243 22.1231C8.28804 22.1231 7.5 21.6226 7.5 20.9943C7.5 20.366 8.28804 19.8655 9.26243 19.8655C10.2368 19.8655 11.0249 20.3713 11.0249 20.9943Z" fill="#FFEEF7"/>
<path d="M21.3063 14.3971C20.9631 14.3542 20.6257 14.2739 20.3 14.1575L19.4853 13.9126C19.2191 13.838 18.9209 13.7475 18.6228 13.6357C18.2991 13.5087 17.9887 13.35 17.6963 13.1618C18.0016 12.9541 18.3558 12.8293 18.7239 12.7997C19.0814 12.7634 19.4426 12.7941 19.7888 12.8903C20.1512 12.9972 20.4821 13.1909 20.7526 13.4547C21.013 13.7176 21.2034 14.0416 21.3063 14.3971Z" fill="black"/>
<path d="M18.229 20.9943C18.229 21.6226 19.017 22.1231 19.9914 22.1231C20.9658 22.1231 21.7485 21.6226 21.7485 20.9943C21.7485 20.366 20.9605 19.8655 19.9914 19.8655C19.0224 19.8655 18.229 20.3713 18.229 20.9943Z" fill="#FFEEF7"/>
<path d="M12.6916 18.6834H8.02197V20.6162H12.6916V18.6834Z" stroke="black" stroke-width="0.5" stroke-miterlimit="10"/>
<path d="M21.0241 18.6834H16.3545V20.6162H21.0241V18.6834Z" stroke="black" stroke-width="0.5" stroke-miterlimit="10"/>
<path d="M12.6914 19.3277C12.6914 19.3277 15.5188 18.3639 16.3547 19.6472" stroke="black" stroke-miterlimit="10"/>
<path d="M8.02171 19.6471H5.81201" stroke="black" stroke-width="0.5" stroke-miterlimit="10"/>
<path d="M23.197 19.6471H20.9873" stroke="black" stroke-width="0.5" stroke-miterlimit="10"/>
<path d="M5.0293 20.9144C5.27563 20.9137 5.51462 20.9984 5.70553 21.154C5.89304 21.2936 6.05666 21.4626 6.19005 21.6545C6.31954 21.8457 6.41837 22.0559 6.48293 22.2775C6.54513 22.4981 6.58261 22.7249 6.59472 22.9537C6.40376 22.8225 6.23937 22.6563 6.1102 22.4639L5.75343 21.9581L5.40735 21.4256C5.29245 21.2473 5.16617 21.0765 5.0293 20.9144Z" fill="black"/>
<path d="M18.6068 18.5291C18.6687 18.6271 18.7518 18.7099 18.85 18.7714C18.9482 18.8329 19.0589 18.8716 19.1741 18.8844C19.2892 18.8973 19.4058 18.8841 19.5152 18.8458C19.6245 18.8075 19.7238 18.745 19.8058 18.6631C19.8877 18.5812 19.9502 18.4818 19.9885 18.3725C20.0268 18.2631 20.04 18.1465 20.0271 18.0314C20.0143 17.9162 19.9756 17.8055 19.9141 17.7073C19.8526 17.6091 19.7698 17.526 19.6718 17.4642C19.5236 17.3707 19.3481 17.3304 19.1741 17.3499C19 17.3693 18.8378 17.4474 18.7139 17.5712C18.5901 17.6951 18.512 17.8573 18.4926 18.0314C18.4731 18.2054 18.5134 18.3809 18.6068 18.5291Z" fill="black"/>
<path d="M24.2193 20.9144C24.0649 21.0955 23.9637 21.2712 23.8413 21.4469L23.5005 21.9793L23.1384 22.4852C23.0097 22.6761 22.8473 22.8421 22.6592 22.975C22.6669 22.7461 22.7027 22.519 22.7657 22.2988C22.8299 22.0761 22.9306 21.8656 23.0639 21.6758C23.1943 21.4815 23.3584 21.312 23.5484 21.1753C23.735 21.0131 23.9722 20.9209 24.2193 20.9144Z" fill="black"/>
<path d="M14.6456 17.8847C14.7437 18.1916 14.9286 18.4635 15.178 18.6674C15.3073 18.7987 15.42 18.9453 15.5135 19.104C15.6062 19.2813 15.664 19.4747 15.6839 19.6738C15.7225 20.0686 15.6039 20.4627 15.3538 20.7706C15.2364 20.9162 15.0868 21.0323 14.9167 21.11C14.7467 21.1876 14.5608 21.2246 14.374 21.2179C14.6432 21.0524 14.8622 20.8168 15.0076 20.5363C15.1338 20.2845 15.1837 20.0014 15.1514 19.7217C15.1228 19.4316 15.0181 19.1543 14.8479 18.9177C14.7516 18.7645 14.6747 18.5999 14.619 18.4278C14.5658 18.249 14.5752 18.0574 14.6456 17.8847Z" fill="black"/>
</svg>
