<svg width="19" height="19" viewBox="0 0 19 19" fill="none" xmlns="http://www.w3.org/2000/svg">
<g clip-path="url(#clip0_32_4)">
<path d="M15.3872 7.29045C15.0722 7.29045 14.8247 7.04295 14.8247 6.72795V2.36295C14.8247 2.04795 14.5772 1.80045 14.2622 1.80045H4.13721C3.82221 1.80045 3.57471 2.04795 3.57471 2.36295V4.61295C3.57471 4.92795 3.32721 5.17545 3.01221 5.17545C2.69721 5.17545 2.44971 4.92795 2.44971 4.61295V2.36295C2.44971 1.4292 3.20346 0.675446 4.13721 0.675446H14.2622C15.196 0.675446 15.9497 1.4292 15.9497 2.36295V6.72795C15.9497 7.04295 15.7022 7.29045 15.3872 7.29045Z" fill="black"/>
<path d="M16.5122 18.6754H1.88721C0.953457 18.6754 0.199707 17.9217 0.199707 16.9879V5.73795C0.199707 4.8042 0.953457 4.05045 1.88721 4.05045H7.23096C7.41096 4.05045 7.57971 4.1292 7.68096 4.27545L9.19971 6.30045H16.5122C17.446 6.30045 18.1997 7.0542 18.1997 7.98795V16.9879C18.1997 17.9217 17.446 18.6754 16.5122 18.6754ZM1.88721 5.17545C1.57221 5.17545 1.32471 5.42295 1.32471 5.73795V16.9879C1.32471 17.3029 1.57221 17.5504 1.88721 17.5504H16.5122C16.8272 17.5504 17.0747 17.3029 17.0747 16.9879V7.98795C17.0747 7.67295 16.8272 7.42545 16.5122 7.42545H8.91846C8.83082 7.42728 8.74405 7.40776 8.66565 7.36855C8.58725 7.32935 8.51957 7.27166 8.46846 7.20045L6.94971 5.17545H1.88721Z" fill="black"/>
<path d="M6.38721 15.3004H4.13721C3.82221 15.3004 3.57471 15.0529 3.57471 14.7379C3.57471 14.4229 3.82221 14.1754 4.13721 14.1754H6.38721C6.70221 14.1754 6.94971 14.4229 6.94971 14.7379C6.94971 15.0529 6.70221 15.3004 6.38721 15.3004Z" fill="black"/>
</g>
<defs>
<clipPath id="clip0_32_4">
<rect width="18" height="18" fill="white" transform="translate(0.199707 0.675446)"/>
</clipPath>
</defs>
</svg>
