<svg width="20" height="10" viewBox="0 0 20 10" fill="none" xmlns="http://www.w3.org/2000/svg">
<path d="M2.95856 9.38579C2.73216 9.59675 2.43271 9.7116 2.12331 9.70614C1.8139 9.70068 1.51869 9.57534 1.29988 9.35652C1.08106 9.13771 0.955718 8.8425 0.950259 8.53309C0.9448 8.22369 1.05965 7.92424 1.27061 7.69784L4.92199 4.04646C5.44455 3.52427 6.15306 3.23094 6.8918 3.23094C7.63054 3.23094 8.33905 3.52427 8.86161 4.04646L11.3872 6.57201C11.4241 6.60908 11.4681 6.6385 11.5164 6.65857C11.5648 6.67864 11.6166 6.68897 11.669 6.68897C11.7214 6.68897 11.7732 6.67864 11.8216 6.65857C11.87 6.6385 11.9139 6.60908 11.9509 6.57201L15.1548 3.3665H14.0576C13.7409 3.3665 13.4371 3.24067 13.2131 3.0167C12.9891 2.79272 12.8633 2.48894 12.8633 2.1722C12.8633 1.85545 12.9891 1.55167 13.2131 1.3277C13.4371 1.10372 13.7409 0.977892 14.0576 0.977892H18.0386C18.3554 0.977892 18.6592 1.10372 18.8831 1.3277C19.1071 1.55167 19.2329 1.85545 19.2329 2.1722V6.15321C19.2329 6.46996 19.1071 6.77373 18.8831 6.99771C18.6592 7.22168 18.3554 7.34751 18.0386 7.34751C17.7219 7.34751 17.4181 7.22168 17.1941 6.99771C16.9702 6.77373 16.8443 6.46996 16.8443 6.15321V5.05445L13.6388 8.25996C13.1163 8.78214 12.4078 9.07547 11.669 9.07547C10.9303 9.07547 10.2218 8.78214 9.69921 8.25996L7.17366 5.73441C7.13668 5.69733 7.09274 5.66792 7.04438 5.64785C6.99601 5.62778 6.94416 5.61745 6.8918 5.61745C6.83944 5.61745 6.78759 5.62778 6.73922 5.64785C6.69086 5.66792 6.64692 5.69733 6.60994 5.73441L2.95856 9.38579Z" fill="#75D661"/>
</svg>
