<svg width="18" height="19" viewBox="0 0 18 19" fill="none" xmlns="http://www.w3.org/2000/svg">
<path d="M13.9293 18.2689H15.663C16.4274 18.2689 17.0491 17.6469 17.0491 16.8828V13.5894C17.0491 12.8253 16.4274 12.2033 15.663 12.2033H13.9293C13.1648 12.2033 12.5432 12.8253 12.5432 13.5894V16.8828C12.5432 17.6469 13.1648 18.2689 13.9293 18.2689ZM15.663 13.5894H15.664L15.663 16.8828H13.9293V13.5894H15.663Z" fill="black"/>
<path d="M1.45005 18.2692H3.18371C3.94817 18.2692 4.56982 17.6472 4.56982 16.883V2.35798C4.56982 1.59385 3.94817 0.971863 3.18371 0.971863H1.45005C0.685595 0.971863 0.0639434 1.59385 0.0639434 2.35798V16.883C0.0639434 17.6472 0.685595 18.2692 1.45005 18.2692ZM3.18371 2.35798H3.18439L3.18371 16.883H1.45005V2.35798H3.18371Z" fill="black"/>
<path d="M7.68931 18.2685H9.42297C10.1874 18.2685 10.8091 17.6466 10.8091 16.8824V7.97287C10.8091 7.20875 10.1874 6.58676 9.42297 6.58676H7.68931C6.92485 6.58676 6.3032 7.20875 6.3032 7.97287V16.8824C6.3032 17.6466 6.92485 18.2685 7.68931 18.2685ZM9.42297 7.97287H9.42365L9.42297 16.8824H7.68931V7.97287H9.42297Z" fill="black"/>
</svg>
