<svg width="43" height="43" viewBox="0 0 43 43" fill="none" xmlns="http://www.w3.org/2000/svg">
<path d="M25.9811 12.476C25.9811 12.225 26.0808 11.9843 26.2582 11.8069C26.4357 11.6294 26.6764 11.5297 26.9274 11.5297H30.0818C30.3328 11.5297 30.5735 11.6294 30.751 11.8069C30.9284 11.9843 31.0281 12.225 31.0281 12.476V15.6304C31.0281 15.8814 30.9284 16.1221 30.751 16.2996C30.5735 16.4771 30.3328 16.5768 30.0818 16.5768C29.8308 16.5768 29.5901 16.4771 29.4127 16.2996C29.2352 16.1221 29.1355 15.8814 29.1355 15.6304V14.7598L23.4954 20.3999C23.3179 20.5771 23.0774 20.6767 22.8266 20.6767C22.5759 20.6767 22.3353 20.5771 22.1579 20.3999L19.0413 17.2834L13.7167 22.608C13.63 22.701 13.5256 22.7756 13.4095 22.8273C13.2934 22.879 13.1681 22.9068 13.041 22.9091C12.914 22.9113 12.7877 22.8879 12.6699 22.8403C12.5521 22.7927 12.445 22.7219 12.3552 22.632C12.2653 22.5422 12.1945 22.4351 12.1469 22.3173C12.0993 22.1995 12.0759 22.0733 12.0782 21.9462C12.0804 21.8191 12.1082 21.6938 12.1599 21.5777C12.2116 21.4617 12.2862 21.3572 12.3792 21.2705L18.3726 15.2771C18.55 15.0999 18.7906 15.0004 19.0413 15.0004C19.2921 15.0004 19.5326 15.0999 19.7101 15.2771L22.8266 18.3937L27.798 13.4223H26.9274C26.6764 13.4223 26.4357 13.3226 26.2582 13.1452C26.0808 12.9677 25.9811 12.727 25.9811 12.476ZM13.0479 26.6709C13.2989 26.6709 13.5396 26.7706 13.7171 26.9481C13.8946 27.1256 13.9943 27.3663 13.9943 27.6172V30.7717C13.9943 31.0226 13.8946 31.2634 13.7171 31.4408C13.5396 31.6183 13.2989 31.718 13.0479 31.718C12.797 31.718 12.5563 31.6183 12.3788 31.4408C12.2013 31.2634 12.1016 31.0226 12.1016 30.7717V27.6172C12.1016 27.3663 12.2013 27.1256 12.3788 26.9481C12.5563 26.7706 12.797 26.6709 13.0479 26.6709ZM19.0413 23.8319C19.0413 23.581 18.9416 23.3403 18.7642 23.1628C18.5867 22.9853 18.346 22.8856 18.095 22.8856C17.844 22.8856 17.6033 22.9853 17.4259 23.1628C17.2484 23.3403 17.1487 23.581 17.1487 23.8319V30.7717C17.1487 31.0226 17.2484 31.2634 17.4259 31.4408C17.6033 31.6183 17.844 31.718 18.095 31.718C18.346 31.718 18.5867 31.6183 18.7642 31.4408C18.9416 31.2634 19.0413 31.0226 19.0413 30.7717V23.8319ZM23.1421 25.4092C23.3931 25.4092 23.6338 25.5089 23.8112 25.6863C23.9887 25.8638 24.0884 26.1045 24.0884 26.3555V30.7717C24.0884 31.0226 23.9887 31.2634 23.8112 31.4408C23.6338 31.6183 23.3931 31.718 23.1421 31.718C22.8911 31.718 22.6504 31.6183 22.4729 31.4408C22.2955 31.2634 22.1958 31.0226 22.1958 30.7717V26.3555C22.1958 26.1045 22.2955 25.8638 22.4729 25.6863C22.6504 25.5089 22.8911 25.4092 23.1421 25.4092ZM29.1355 21.3084C29.1355 21.0574 29.0358 20.8167 28.8583 20.6392C28.6808 20.4618 28.4401 20.3621 28.1892 20.3621C27.9382 20.3621 27.6975 20.4618 27.52 20.6392C27.3425 20.8167 27.2428 21.0574 27.2428 21.3084V30.7717C27.2428 31.0226 27.3425 31.2634 27.52 31.4408C27.6975 31.6183 27.9382 31.718 28.1892 31.718C28.4401 31.718 28.6808 31.6183 28.8583 31.4408C29.0358 31.2634 29.1355 31.0226 29.1355 30.7717V21.3084Z" fill="black"/>
</svg>
