<svg width="43" height="43" viewBox="0 0 43 43" fill="none" xmlns="http://www.w3.org/2000/svg">
<path fill-rule="evenodd" clip-rule="evenodd" d="M30.5531 21.6238C30.5531 22.8057 30.3203 23.9761 29.868 25.068C29.4157 26.1599 28.7528 27.1521 27.9171 27.9878C27.0813 28.8235 26.0892 29.4865 24.9973 29.9388C23.9053 30.391 22.735 30.6238 21.5531 30.6238C20.3712 30.6238 19.2009 30.391 18.1089 29.9388C17.017 29.4865 16.0249 28.8235 15.1891 27.9878C14.3534 27.1521 13.6905 26.1599 13.2382 25.068C12.7859 23.9761 12.5531 22.8057 12.5531 21.6238C12.5531 19.2369 13.5013 16.9477 15.1891 15.2599C16.877 13.5721 19.1662 12.6238 21.5531 12.6238C23.94 12.6238 26.2292 13.5721 27.9171 15.2599C29.6049 16.9477 30.5531 19.2369 30.5531 21.6238ZM21.5531 32.6238C27.6281 32.6238 32.5531 27.6988 32.5531 21.6238C32.5531 15.5488 27.6281 10.6238 21.5531 10.6238C15.4781 10.6238 10.5531 15.5488 10.5531 21.6238C10.5531 27.6988 15.4781 32.6238 21.5531 32.6238ZM21.5531 18.8238C21.8714 18.8238 22.1766 18.6974 22.4016 18.4724C22.6267 18.2473 22.7531 17.9421 22.7531 17.6238C22.7531 17.3056 22.6267 17.0004 22.4016 16.7753C22.1766 16.5503 21.8714 16.4238 21.5531 16.4238C21.2348 16.4238 20.9296 16.5503 20.7046 16.7753C20.4795 17.0004 20.3531 17.3056 20.3531 17.6238C20.3531 17.9421 20.4795 18.2473 20.7046 18.4724C20.9296 18.6974 21.2348 18.8238 21.5531 18.8238ZM22.5531 20.6238V26.6238H20.5531V20.6238H22.5531Z" fill="black"/>
</svg>
