<svg width="25" height="25" viewBox="0 0 25 25" fill="none" xmlns="http://www.w3.org/2000/svg">
<g clip-path="url(#clip0_35_123)">
<path d="M12.8906 0.105652C6.26323 0.105652 0.890625 5.47825 0.890625 12.1057C0.890625 18.7331 6.26323 24.1057 12.8906 24.1057C19.518 24.1057 24.8906 18.7331 24.8906 12.1057C24.8906 5.47825 19.518 0.105652 12.8906 0.105652ZM20.2445 19.4596C18.421 21.2776 15.986 22.3516 13.4139 22.4724C10.8418 22.5931 8.31686 21.7519 6.33109 20.1127C4.34532 18.4735 3.04096 16.1537 2.67217 13.6053C2.30338 11.0569 2.89658 8.46245 4.33618 6.32754C5.77579 4.19262 7.95867 2.67014 10.4595 2.05676C12.9603 1.44338 15.5999 1.78304 17.864 3.00955C20.128 4.23606 21.8544 6.26156 22.7066 8.69139C23.5588 11.1212 23.4759 13.7813 22.474 16.1533C21.9518 17.3893 21.1947 18.5122 20.2445 19.4596Z" fill="#75D661"/>
<path d="M8.01566 9.48065H9.89066V11.3557H8.01566V9.48065ZM15.8907 9.48065H17.7657V11.3557H15.8907V9.48065ZM16.748 14.5057C16.4578 15.2377 15.9539 15.8655 15.3018 16.3069C14.6497 16.7484 13.8797 16.9832 13.0922 16.9807H12.6891C11.9016 16.9832 11.1316 16.7485 10.4795 16.307C9.82733 15.8655 9.32335 15.2378 9.03322 14.5057L8.97327 14.3557H7.35791L7.64066 15.0626C8.04425 16.0716 8.74091 16.9365 9.64077 17.5457C10.5406 18.155 11.6024 18.4806 12.6891 18.4807H13.0922C14.1789 18.4806 15.2407 18.155 16.1406 17.5457C17.0404 16.9365 17.7371 16.0716 18.1407 15.0626L18.4234 14.3557H16.8079L16.748 14.5057Z" fill="#75D661"/>
</g>
<defs>
<clipPath id="clip0_35_123">
<rect width="24" height="24" fill="white" transform="translate(0.890625 0.105652)"/>
</clipPath>
</defs>
</svg>
