<svg width="25" height="25" viewBox="0 0 25 25" fill="none" xmlns="http://www.w3.org/2000/svg">
<g clip-path="url(#clip0_35_133)">
<path d="M8.39062 16.6057H17.3906V18.1057H8.39062V16.6057ZM12.8906 0.105652C13.9922 0.105652 15.0547 0.246277 16.0781 0.527527C17.1016 0.808777 18.0547 1.21503 18.9375 1.74628C19.8203 2.27753 20.6289 2.90253 21.3633 3.62128C22.0977 4.34003 22.7266 5.14862 23.25 6.04706C23.7734 6.9455 24.1758 7.90253 24.457 8.91815C24.7383 9.93378 24.8828 10.9963 24.8906 12.1057C24.8906 13.2072 24.75 14.2697 24.4688 15.2932C24.1875 16.3166 23.7852 17.2736 23.2617 18.1642C22.7383 19.0549 22.1133 19.8635 21.3867 20.59C20.6602 21.3166 19.8477 21.9416 18.9492 22.465C18.0508 22.9885 17.0938 23.3908 16.0781 23.6721C15.0625 23.9533 14 24.0978 12.8906 24.1057C11.7891 24.1057 10.7266 23.965 9.70312 23.6838C8.67969 23.4025 7.72266 23.0002 6.83203 22.4767C5.94141 21.9533 5.13281 21.3283 4.40625 20.6017C3.67969 19.8752 3.05469 19.0627 2.53125 18.1642C2.00781 17.2658 1.60547 16.3127 1.32422 15.3049C1.04297 14.2971 0.898438 13.2307 0.890625 12.1057C0.890625 11.0041 1.03125 9.94159 1.3125 8.91815C1.59375 7.89471 1.99609 6.93768 2.51953 6.04706C3.04297 5.15643 3.66797 4.34784 4.39453 3.62128C5.12109 2.89471 5.93359 2.26971 6.83203 1.74628C7.73047 1.22284 8.68359 0.820496 9.69141 0.539246C10.6992 0.257996 11.7656 0.113464 12.8906 0.105652ZM12.8906 22.6057C13.8516 22.6057 14.7773 22.4807 15.668 22.2307C16.5586 21.9807 17.3945 21.6291 18.1758 21.176C18.957 20.7228 19.668 20.1721 20.3086 19.5236C20.9492 18.8752 21.4961 18.1682 21.9492 17.4025C22.4023 16.6369 22.7578 15.801 23.0156 14.8947C23.2734 13.9885 23.3984 13.0588 23.3906 12.1057C23.3906 11.1447 23.2656 10.2189 23.0156 9.32831C22.7656 8.43768 22.4141 7.60175 21.9609 6.8205C21.5078 6.03925 20.957 5.32831 20.3086 4.68768C19.6602 4.04706 18.9531 3.50018 18.1875 3.04706C17.4219 2.59393 16.5859 2.23846 15.6797 1.98065C14.7734 1.72284 13.8438 1.59784 12.8906 1.60565C11.9297 1.60565 11.0039 1.73065 10.1133 1.98065C9.22266 2.23065 8.38672 2.58221 7.60547 3.03534C6.82422 3.48846 6.11328 4.03925 5.47266 4.68768C4.83203 5.33612 4.28516 6.04315 3.83203 6.80878C3.37891 7.5744 3.02344 8.41034 2.76562 9.31659C2.50781 10.2228 2.38281 11.1525 2.39062 12.1057C2.39062 13.0666 2.51562 13.9924 2.76562 14.883C3.01562 15.7736 3.36719 16.6096 3.82031 17.3908C4.27344 18.1721 4.82422 18.883 5.47266 19.5236C6.12109 20.1642 6.82812 20.7111 7.59375 21.1642C8.35938 21.6174 9.19531 21.9728 10.1016 22.2307C11.0078 22.4885 11.9375 22.6135 12.8906 22.6057Z" fill="#929BD2"/>
<path d="M9.89062 10.2307H8.01562V12.1057H9.89062V10.2307Z" fill="#929BD2"/>
<path d="M17.7656 10.2307H15.8906V12.1057H17.7656V10.2307Z" fill="#929BD2"/>
</g>
<defs>
<clipPath id="clip0_35_133">
<rect width="24" height="24" fill="white" transform="translate(0.890625 0.105652)"/>
</clipPath>
</defs>
</svg>
