<svg width="25" height="25" viewBox="0 0 25 25" fill="none" xmlns="http://www.w3.org/2000/svg">
<g clip-path="url(#clip0_35_126)">
<path d="M12.8906 0.855652C6.67744 0.855652 1.64062 5.89246 1.64062 12.1057C1.64062 18.3188 6.67744 23.3557 12.8906 23.3557C19.1038 23.3557 24.1406 18.3188 24.1406 12.1057C24.1406 5.89246 19.1038 0.855652 12.8906 0.855652ZM19.7849 18.9999C18.0754 20.7043 15.7926 21.7112 13.3812 21.8244C10.9699 21.9376 8.60272 21.149 6.74106 19.6123C4.8794 18.0755 3.65656 15.9007 3.31082 13.5115C2.96508 11.1224 3.52121 8.69015 4.87084 6.68867C6.22046 4.68719 8.26691 3.25986 10.6114 2.68482C12.9559 2.10978 15.4306 2.4282 17.5531 3.57806C19.6757 4.72791 21.2941 6.62682 22.0931 8.90478C22.8921 11.1827 22.8143 13.6766 21.875 15.9003C21.3855 17.0591 20.6757 18.1118 19.7849 18.9999Z" fill="black"/>
<path d="M8.01562 9.48065H9.89062V11.3557H8.01562V9.48065ZM15.8906 9.48065H17.7656V11.3557H15.8906V9.48065ZM12.8906 13.6057C11.797 13.6069 10.7485 14.0419 9.97518 14.8152C9.20186 15.5885 8.76687 16.637 8.76562 17.7307H10.2656C10.2656 17.0345 10.5422 16.3668 11.0345 15.8745C11.5268 15.3822 12.1944 15.1057 12.8906 15.1057C13.5868 15.1057 14.2545 15.3822 14.7468 15.8745C15.2391 16.3668 15.5156 17.0345 15.5156 17.7307H17.0156C17.0144 16.637 16.5794 15.5885 15.8061 14.8152C15.0328 14.0419 13.9843 13.6069 12.8906 13.6057Z" fill="black"/>
</g>
<defs>
<clipPath id="clip0_35_126">
<rect width="24" height="24" fill="white" transform="translate(0.890625 0.105652)"/>
</clipPath>
</defs>
</svg>
