<svg width="23" height="22" viewBox="0 0 23 22" fill="none" xmlns="http://www.w3.org/2000/svg">
<path d="M21.5934 10.2408V16.4754C21.5934 17.6247 21.1369 18.7269 20.3242 19.5396C19.5116 20.3522 18.4094 20.8088 17.2601 20.8088H5.88509C4.73582 20.8088 3.63362 20.3522 2.82096 19.5396C2.0083 18.7269 1.55176 17.6247 1.55176 16.4754V6.72542C1.55176 5.57615 2.0083 4.47395 2.82096 3.66129C3.63362 2.84864 4.73582 2.39209 5.88509 2.39209H13.632" stroke="black" stroke-width="1.5" stroke-linecap="round" stroke-linejoin="round"/>
<path d="M1.55176 6.82288L9.40592 11.297C10.0625 11.6839 10.8106 11.8878 11.5726 11.8878C12.3346 11.8878 13.0827 11.6839 13.7393 11.297L16.1432 9.93529" stroke="black" stroke-width="1.5" stroke-linecap="round" stroke-linejoin="round"/>
<path d="M19.1558 6.72538C20.6516 6.72538 21.8642 5.51282 21.8642 4.01705C21.8642 2.52128 20.6516 1.30872 19.1558 1.30872C17.6601 1.30872 16.4475 2.52128 16.4475 4.01705C16.4475 5.51282 17.6601 6.72538 19.1558 6.72538Z" stroke="black" stroke-width="1.5"/>
</svg>
