<svg width="25" height="25" viewBox="0 0 25 25" fill="none" xmlns="http://www.w3.org/2000/svg">
<path d="M21.9393 18.5949C21.2964 18.0217 20.7336 17.3647 20.266 16.6415C19.7555 15.6432 19.4495 14.553 19.366 13.4349V10.1415C19.3704 8.38526 18.7333 6.68784 17.5745 5.36817C16.4156 4.0485 14.8148 3.19743 13.0726 2.97485V2.11485C13.0726 1.87881 12.9789 1.65244 12.812 1.48553C12.6451 1.31862 12.4187 1.22485 12.1826 1.22485C11.9466 1.22485 11.7202 1.31862 11.5533 1.48553C11.3864 1.65244 11.2927 1.87881 11.2927 2.11485V2.98819C9.56615 3.22681 7.98463 4.08302 6.841 5.39826C5.69737 6.71349 5.06914 8.39862 5.07265 10.1415V13.4349C4.98915 14.553 4.68317 15.6432 4.17265 16.6415C3.71324 17.3631 3.15945 18.02 2.52598 18.5949C2.45487 18.6573 2.39788 18.7342 2.35879 18.8204C2.31971 18.9067 2.29944 19.0002 2.29932 19.0949V20.0015C2.29932 20.1783 2.36955 20.3479 2.49458 20.4729C2.6196 20.5979 2.78917 20.6682 2.96598 20.6682H21.4993C21.6761 20.6682 21.8457 20.5979 21.9707 20.4729C22.0957 20.3479 22.166 20.1783 22.166 20.0015V19.0949C22.1659 19.0002 22.1456 18.9067 22.1065 18.8204C22.0674 18.7342 22.0104 18.6573 21.9393 18.5949ZM3.68598 19.3349C4.30626 18.7357 4.85238 18.0642 5.31265 17.3349C5.95572 16.1292 6.33094 14.7989 6.41265 13.4349V10.1415C6.38621 9.36021 6.51727 8.58157 6.79801 7.85196C7.07876 7.12236 7.50346 6.45671 8.04681 5.89465C8.59017 5.3326 9.24108 4.88563 9.96077 4.58037C10.6805 4.27511 11.4542 4.11779 12.236 4.11779C13.0177 4.11779 13.7915 4.27511 14.5112 4.58037C15.2309 4.88563 15.8818 5.3326 16.4252 5.89465C16.9685 6.45671 17.3932 7.12236 17.674 7.85196C17.9547 8.58157 18.0858 9.36021 18.0593 10.1415V13.4349C18.141 14.7989 18.5162 16.1292 19.1593 17.3349C19.6196 18.0642 20.1657 18.7357 20.786 19.3349H3.68598Z" fill="#FFA412"/>
<path d="M12.2657 22.8948C12.6856 22.8851 13.0886 22.7272 13.4034 22.449C13.7182 22.1709 13.9244 21.7903 13.9857 21.3748H10.479C10.542 21.8016 10.7579 22.1911 11.0865 22.4707C11.4152 22.7503 11.8342 22.901 12.2657 22.8948Z" fill="#FFA412"/>
</svg>
