<svg width="43" height="42" viewBox="0 0 43 42" fill="none" xmlns="http://www.w3.org/2000/svg">
<path d="M8.01582 9.24573H23.4867C25.1386 9.24573 26.4949 10.5753 26.4949 12.2069V21.0101C26.4949 22.635 25.1386 23.9713 23.4867 23.9713H15.1469L9.83551 28.0472V23.9713H8.01583C6.36394 23.9713 5.00753 22.635 5.00753 21.0101V12.2069C5.00753 10.5753 6.36392 9.24573 8.01582 9.24573ZM6.35047 21.0101C6.35047 21.903 7.09589 22.6283 8.01582 22.6283H9.8355C10.5808 22.6283 11.1785 23.226 11.1785 23.9713V25.321L14.3278 22.9037C14.5628 22.7224 14.8448 22.6283 15.1469 22.6283H23.4867C24.4067 22.6283 25.152 21.9031 25.152 21.0101V12.2069C25.152 11.3138 24.4067 10.5887 23.4867 10.5887H8.01582C7.09589 10.5887 6.35047 11.3138 6.35047 12.2069V21.0101Z" fill="black"/>
<path d="M17.954 23.9712V25.7172C17.954 26.6103 18.7061 27.3286 19.6193 27.3286H27.9658C28.2613 27.3286 28.55 27.4293 28.7851 27.6106L31.9276 30.028V28.6716C31.9276 27.9329 32.5319 27.3286 33.2705 27.3286H35.0902C36.0102 27.3286 36.7555 26.6103 36.7555 25.7171V16.9072C36.7555 16.021 36.0102 15.2957 35.0902 15.2957H26.4952V13.9528H35.0902C36.7487 13.9528 38.0984 15.2823 38.0984 16.9072V25.7171C38.0984 27.3421 36.7487 28.6716 35.0902 28.6716H33.2705V32.7543L27.9658 28.6716H19.6193C17.9675 28.6716 16.611 27.3421 16.611 25.7171V23.9712L17.954 23.9712Z" fill="black"/>
</svg>
