<svg width="22" height="22" viewBox="0 0 22 22" fill="none" xmlns="http://www.w3.org/2000/svg">
<path d="M6.39062 11.1057L11.3906 14.6057L16.3906 11.1057" stroke="black" stroke-linecap="round" stroke-linejoin="round"/>
<path d="M1.39063 19.1057V8.23766C1.39062 7.89228 1.48006 7.5528 1.65022 7.25225C1.82038 6.95171 2.06547 6.70035 2.36162 6.52266L10.3616 1.72266C10.6725 1.53615 11.0281 1.43764 11.3906 1.43764C11.7531 1.43764 12.1088 1.53615 12.4196 1.72266L20.4196 6.52266C20.7158 6.70035 20.9609 6.95171 21.131 7.25225C21.3012 7.5528 21.3906 7.89228 21.3906 8.23766V19.1057C21.3906 19.6361 21.1799 20.1448 20.8048 20.5199C20.4298 20.8949 19.9211 21.1057 19.3906 21.1057H3.39062C2.86019 21.1057 2.35148 20.8949 1.97641 20.5199C1.60134 20.1448 1.39063 19.6361 1.39063 19.1057Z" stroke="black"/>
</svg>
