<svg width="17" height="12" viewBox="0 0 17 12" fill="none" xmlns="http://www.w3.org/2000/svg">
<path d="M8.26611 0.153381C4.62975 0.153381 1.5243 2.4152 0.266113 5.60793C1.5243 8.80065 4.62975 11.0625 8.26611 11.0625C11.9025 11.0625 15.0079 8.80065 16.2661 5.60793C15.0079 2.4152 11.9025 0.153381 8.26611 0.153381ZM8.26611 9.24429C6.25884 9.24429 4.62975 7.6152 4.62975 5.60793C4.62975 3.60065 6.25884 1.97156 8.26611 1.97156C10.2734 1.97156 11.9025 3.60065 11.9025 5.60793C11.9025 7.6152 10.2734 9.24429 8.26611 9.24429ZM8.26611 3.42611C7.05884 3.42611 6.0843 4.40065 6.0843 5.60793C6.0843 6.8152 7.05884 7.78974 8.26611 7.78974C9.47339 7.78974 10.4479 6.8152 10.4479 5.60793C10.4479 4.40065 9.47339 3.42611 8.26611 3.42611Z" fill="#DCD9DE"/>
</svg>
