<svg width="43" height="42" viewBox="0 0 43 42" fill="none" xmlns="http://www.w3.org/2000/svg">
<path d="M21.553 35.3297C29.4546 35.3297 35.8827 28.9016 35.8827 21C35.8827 13.0984 29.4546 6.67029 21.553 6.67029C13.6514 6.67029 7.22327 13.0984 7.22327 21C7.22327 28.9016 13.6514 35.3297 21.553 35.3297ZM21.553 8.35615C28.5248 8.35615 34.1968 14.0278 34.1968 21C34.1968 27.9723 28.5248 33.6439 21.553 33.6439C14.5812 33.6439 8.90912 27.9723 8.90912 21C8.90912 14.0278 14.5812 8.35615 21.553 8.35615Z" fill="black"/>
<path d="M21.5532 31.5373C27.3631 31.5373 32.0897 26.8107 32.0897 21.0008C32.0897 15.1909 27.3631 10.4642 21.5532 10.4642C15.7433 10.4642 11.0166 15.1909 11.0166 21.0008C11.0166 26.8107 15.7433 31.5373 21.5532 31.5373ZM21.5532 12.1501C26.4333 12.1501 30.4039 16.1202 30.4039 21.0008C30.4039 25.8813 26.4333 29.8515 21.5532 29.8515C16.673 29.8515 12.7025 25.8813 12.7025 21.0008C12.7025 16.1202 16.673 12.1501 21.5532 12.1501Z" fill="black"/>
<path d="M21.5532 25.6368C24.1096 25.6368 26.1893 23.5566 26.1893 21.0007C26.1893 18.4448 24.1096 16.3646 21.5532 16.3646C18.9969 16.3646 16.9172 18.4448 16.9172 21.0007C16.9172 23.5566 18.9969 25.6368 21.5532 25.6368ZM21.5532 18.0505C23.1798 18.0505 24.5035 19.3741 24.5035 21.0007C24.5035 22.6273 23.1798 23.9509 21.5532 23.9509C19.9267 23.9509 18.603 22.6273 18.603 21.0007C18.603 19.3741 19.9267 18.0505 21.5532 18.0505Z" fill="black"/>
</svg>
