<svg width="16" height="8" viewBox="0 0 16 8" fill="none" xmlns="http://www.w3.org/2000/svg">
<path d="M2.08212 0.552552C1.90161 0.384354 1.66287 0.292785 1.41618 0.297138C1.1695 0.30149 0.934129 0.401425 0.759668 0.575885C0.585208 0.750346 0.485275 0.985712 0.480922 1.2324C0.47657 1.47908 0.568138 1.71783 0.736335 1.89834L3.64755 4.80955C4.06417 5.22588 4.62906 5.45975 5.21805 5.45975C5.80704 5.45975 6.37193 5.22588 6.78856 4.80955L8.80215 2.79595C8.83164 2.76639 8.86666 2.74294 8.90522 2.72694C8.94379 2.71094 8.98512 2.7027 9.02687 2.7027C9.06862 2.7027 9.10996 2.71094 9.14852 2.72694C9.18708 2.74294 9.22211 2.76639 9.25159 2.79595L11.806 5.35167H10.9313C10.6787 5.35167 10.4365 5.45199 10.258 5.63056C10.0794 5.80914 9.97908 6.05133 9.97908 6.30387C9.97908 6.55641 10.0794 6.79861 10.258 6.97718C10.4365 7.15576 10.6787 7.25608 10.9313 7.25608H14.1053C14.3578 7.25608 14.6 7.15576 14.7786 6.97718C14.9572 6.79861 15.0575 6.55641 15.0575 6.30387V3.12985C15.0575 2.87731 14.9572 2.63512 14.7786 2.45654C14.6 2.27797 14.3578 2.17765 14.1053 2.17765C13.8528 2.17765 13.6106 2.27797 13.432 2.45654C13.2534 2.63512 13.1531 2.87731 13.1531 3.12985V4.00588L10.5974 1.45016C10.1808 1.03383 9.61586 0.799964 9.02687 0.799964C8.43788 0.799964 7.87299 1.03383 7.45637 1.45016L5.44277 3.46376C5.41329 3.49332 5.37826 3.51677 5.3397 3.53277C5.30114 3.54877 5.2598 3.55701 5.21805 3.55701C5.1763 3.55701 5.13496 3.54877 5.0964 3.53277C5.05784 3.51677 5.02281 3.49332 4.99333 3.46376L2.08212 0.552552Z" fill="#EE645A"/>
</svg>
