<svg width="22" height="21" viewBox="0 0 22 21" fill="none" xmlns="http://www.w3.org/2000/svg">
<path d="M20.8904 9.10565C20.8904 8.61498 20.8851 8.12298 20.8744 7.62964C20.8094 4.56464 20.7764 3.03164 19.6454 1.89664C18.5144 0.760645 16.9404 0.721645 13.7914 0.642645C11.8577 0.59385 9.92313 0.59385 7.98944 0.642645C4.84044 0.721645 3.26644 0.760645 2.13544 1.89664C1.00444 3.03164 0.971437 4.56464 0.905437 7.62964C0.884386 8.61353 0.884386 9.59776 0.905437 10.5816C0.971437 13.6466 1.00444 15.1796 2.13544 16.3146C3.26644 17.4506 4.84044 17.4896 7.98944 17.5686C8.95877 17.5933 9.92544 17.6056 10.8894 17.6056" stroke="black" stroke-linecap="round" stroke-linejoin="round"/>
<path d="M5.89062 5.60565L8.83263 7.34565C10.5476 8.35965 11.2326 8.35965 12.9486 7.34565L15.8906 5.60565M20.8906 19.6057C20.7746 17.0817 20.8776 16.1627 19.2346 14.9857C18.4266 14.4057 16.8016 14.0247 14.6086 14.2307M16.3426 11.6987L14.0456 13.8517C13.9518 13.945 13.8988 14.0717 13.8982 14.204C13.8977 14.3364 13.9496 14.4635 14.0426 14.5577L16.3426 16.7457" stroke="black" stroke-linecap="round" stroke-linejoin="round"/>
</svg>
