<svg width="29" height="29" viewBox="0 0 29 29" fill="none" xmlns="http://www.w3.org/2000/svg">
<rect x="0.633789" y="0.212891" width="28" height="28" rx="14" fill="white"/>
<path d="M9.97662 17.4677L2.43186 11.4134C2.31654 11.3211 2.23004 11.1977 2.18255 11.0578C2.13506 10.9179 2.12856 10.7673 2.16382 10.6238C2.19909 10.4804 2.27464 10.35 2.38157 10.248C2.48851 10.1461 2.62236 10.0768 2.76735 10.0485L2.87069 10.0353L23.6209 8.78982C23.7546 8.78173 23.8882 8.80848 24.0086 8.86746C24.1289 8.92644 24.2319 9.01563 24.3075 9.12632C24.383 9.23701 24.4286 9.36541 24.4397 9.49897C24.4508 9.63253 24.4271 9.76669 24.3708 9.88833L24.314 9.99031L12.8603 27.3378C12.489 27.8992 11.645 27.7471 11.4696 27.1292L11.4474 27.0287L9.97662 17.4677ZM4.96798 11.4616L10.7683 16.116L16.6965 12.6934C16.8586 12.5998 17.0492 12.5681 17.2329 12.6041C17.4166 12.6401 17.581 12.7414 17.6958 12.8893L17.7548 12.977C17.8484 13.1392 17.8801 13.33 17.8439 13.5138C17.8077 13.6976 17.7061 13.8621 17.5579 13.9768L17.4712 14.0352L11.5412 17.4589L12.6728 24.8088L22.1676 10.4292L4.96798 11.4616Z" fill="#767680"/>
</svg>
