<svg width="35" height="35" viewBox="0 0 35 35" fill="none" xmlns="http://www.w3.org/2000/svg">
<g clip-path="url(#clip0_115_201)">
<path d="M27.063 0.486389H8.46924C3.93878 0.486389 0.266113 4.15905 0.266113 8.68951V27.2833C0.266113 31.8137 3.93878 35.4864 8.46924 35.4864H27.063C31.5934 35.4864 35.2661 31.8137 35.2661 27.2833V8.68951C35.2661 4.15905 31.5934 0.486389 27.063 0.486389Z" fill="white"/>
<path d="M27.063 0.486385H8.46924L4.26592 0.486388C2.0568 0.486399 0.266113 2.27726 0.266113 4.48638V31.4864C0.266113 33.6955 2.05651 35.4864 4.26565 35.4864H8.46924H27.063H31.2661C33.4752 35.4864 35.2661 33.6955 35.2661 31.4864V4.48617C35.2661 2.2771 33.4753 0.486209 31.2662 0.486283L27.063 0.486385Z" fill="#0A66C2"/>
<path d="M25.5201 30.248H29.5219C29.6669 30.248 29.806 30.1904 29.9085 30.0879C30.0111 29.9854 30.0687 29.8463 30.0688 29.7013L30.0708 21.2463C30.0708 16.8271 29.1186 13.4304 23.9543 13.4304C21.9911 13.3574 20.1398 14.3694 19.1408 16.0592C19.1359 16.0674 19.1285 16.0738 19.1196 16.0774C19.1108 16.081 19.101 16.0816 19.0918 16.0791C19.0826 16.0766 19.0744 16.0711 19.0686 16.0636C19.0628 16.056 19.0596 16.0467 19.0595 16.0372V14.3852C19.0595 14.2402 19.0019 14.1011 18.8993 13.9985C18.7967 13.896 18.6576 13.8383 18.5126 13.8383H14.715C14.5699 13.8383 14.4308 13.896 14.3283 13.9985C14.2257 14.1011 14.1681 14.2402 14.1681 14.3852V29.7005C14.1681 29.8455 14.2257 29.9846 14.3283 30.0872C14.4308 30.1897 14.5699 30.2473 14.715 30.2473H18.7164C18.8615 30.2473 19.0006 30.1897 19.1031 30.0872C19.2057 29.9846 19.2633 29.8455 19.2633 29.7005V22.1299C19.2633 19.9893 19.6694 17.9163 22.3232 17.9163C24.9393 17.9163 24.9732 20.3657 24.9732 22.2686V29.7011C24.9732 29.8462 25.0309 29.9853 25.1334 30.0878C25.236 30.1904 25.3751 30.248 25.5201 30.248ZM5.46143 8.63865C5.46143 10.2607 6.79676 11.5953 8.41893 11.5953C10.0407 11.5952 11.3752 10.2597 11.3752 8.63797C11.3749 7.01621 10.0403 5.6817 8.41838 5.6817C6.79607 5.6817 5.46143 7.01662 5.46143 8.63865ZM6.41285 30.248H10.4197C10.5647 30.248 10.7038 30.1904 10.8064 30.0878C10.9089 29.9853 10.9665 29.8462 10.9665 29.7011V14.3852C10.9665 14.2402 10.9089 14.1011 10.8064 13.9985C10.7038 13.896 10.5647 13.8383 10.4197 13.8383H6.41285C6.26781 13.8383 6.12871 13.896 6.02615 13.9985C5.92359 14.1011 5.86598 14.2402 5.86598 14.3852V29.7011C5.86598 29.8462 5.92359 29.9853 6.02615 30.0878C6.12871 30.1904 6.26781 30.248 6.41285 30.248Z" fill="white"/>
</g>
<defs>
<clipPath id="clip0_115_201">
<rect width="35" height="35" fill="white"/>
</clipPath>
</defs>
</svg>
