<svg width="21" height="21" viewBox="0 0 21 21" fill="none" xmlns="http://www.w3.org/2000/svg">
<g clip-path="url(#clip0_116_4872)">
<path d="M7.25245 7.25704L7.25251 7.25698L12.5351 1.97434L13.1879 2.46412C13.3064 2.55305 13.3959 2.67505 13.4451 2.81475L13.9167 2.64864L13.4451 2.81475C13.4943 2.95445 13.501 3.1056 13.4644 3.24912L13.4644 3.24926L12.5036 7.02426L12.3449 7.64759H12.9881H18.3215C18.6309 7.64759 18.9276 7.77051 19.1464 7.9893C19.3652 8.2081 19.4881 8.50484 19.4881 8.81426V10.5676V10.5681C19.4883 10.7206 19.4585 10.8716 19.4006 11.0126L16.8217 17.2746C16.7965 17.3357 16.7538 17.3879 16.6989 17.4246C16.644 17.4614 16.5794 17.481 16.5133 17.4809H16.5131H7.48812C7.39971 17.4809 7.31493 17.4458 7.25242 17.3833C7.1899 17.3208 7.15479 17.236 7.15479 17.1476V7.4927C7.15479 7.49267 7.15479 7.49263 7.15479 7.49259C7.15483 7.40423 7.18996 7.31951 7.25245 7.25704ZM12.5863 1.92314C12.5862 1.92331 12.586 1.92348 12.5858 1.92365L12.5863 1.92314ZM2.48812 8.48093H4.48812V17.4809H2.48812C2.39971 17.4809 2.31493 17.4458 2.25242 17.3833C2.1899 17.3208 2.15479 17.236 2.15479 17.1476V8.81426C2.15479 8.72586 2.1899 8.64107 2.25242 8.57856C2.31493 8.51605 2.39971 8.48093 2.48812 8.48093Z" stroke="black"/>
</g>
<defs>
<clipPath id="clip0_116_4872">
<rect width="20" height="20" fill="white" transform="translate(0.821289 0.480957)"/>
</clipPath>
</defs>
</svg>
