<svg width="25" height="25" viewBox="0 0 25 25" fill="none" xmlns="http://www.w3.org/2000/svg">
<path d="M21.8906 19.8557C21.8906 17.7657 20.2206 14.7877 17.8906 14.1287M15.8906 19.8557C15.8906 17.2047 13.2046 13.8557 9.89062 13.8557C6.57663 13.8557 3.89062 17.2047 3.89062 19.8557M15.8906 10.3557C16.6863 10.3557 17.4493 10.0396 18.0119 9.47697C18.5746 8.91436 18.8906 8.1513 18.8906 7.35565C18.8906 6.56 18.5746 5.79694 18.0119 5.23433C17.4493 4.67172 16.6863 4.35565 15.8906 4.35565M12.8906 7.35565C12.8906 8.1513 12.5746 8.91436 12.0119 9.47697C11.4493 10.0396 10.6863 10.3557 9.89062 10.3557C9.09498 10.3557 8.33191 10.0396 7.7693 9.47697C7.2067 8.91436 6.89062 8.1513 6.89062 7.35565C6.89062 6.56 7.2067 5.79694 7.7693 5.23433C8.33191 4.67172 9.09498 4.35565 9.89062 4.35565C10.6863 4.35565 11.4493 4.67172 12.0119 5.23433C12.5746 5.79694 12.8906 6.56 12.8906 7.35565Z" stroke="black" stroke-linecap="round" stroke-linejoin="round"/>
</svg>
